<svg width="32" height="32" viewBox="0 0 32 32" fill="none" xmlns="http://www.w3.org/2000/svg">
<path d="M30 0H2L4.47059 28.6316L16 32L27.5294 28.6316L30 0Z" fill="#0277BD"/>
<path d="M16 2.66666V29.3333L25.5377 26.6583L27.6667 2.66666H16Z" fill="#039BE5"/>
<path d="M23.6667 6.66666H16V10.0452H20.1282L19.8755 13.4238H16V16.8024H19.707L19.4542 20.6033L16 21.7858V25.3333L22.6557 23.1372L23.2454 13.4238L23.6667 6.66666Z" fill="white"/>
<path d="M16 6.66666V10.0452H8.58337L8.33337 6.66666H16ZM12.1667 13.4238L12.3334 16.8024H16V13.4238H12.1667ZM12.5 18.4917H9.16671L9.41671 23.1372L16 25.3333V21.7858L12.5834 20.6033L12.5 18.4917Z" fill="#EEEEEE"/>
</svg>
