<svg width="32" height="32" viewBox="0 0 32 32" fill="none" xmlns="http://www.w3.org/2000/svg">
<g clip-path="url(#clip0_176_342)">
<path d="M10.9957 32C13.9397 32 16.329 29.6107 16.329 26.6667V21.3333H10.9957C8.05169 21.3333 5.66235 23.7227 5.66235 26.6667C5.66235 29.6107 8.05169 32 10.9957 32Z" fill="#0ACF83"/>
<path d="M5.66235 16C5.66235 13.056 8.05169 10.6667 10.9957 10.6667H16.329V21.3333H10.9957C8.05169 21.3333 5.66235 18.944 5.66235 16Z" fill="#A259FF"/>
<path d="M5.66235 5.33333C5.66235 2.38933 8.05169 0 10.9957 0H16.329V10.6667H10.9957C8.05169 10.6667 5.66235 8.27733 5.66235 5.33333Z" fill="#F24E1E"/>
<path d="M16.3291 0H21.6624C24.6064 0 26.9958 2.38933 26.9958 5.33333C26.9958 8.27733 24.6064 10.6667 21.6624 10.6667H16.3291V0Z" fill="#FF7262"/>
<path d="M26.9958 16C26.9958 18.944 24.6064 21.3333 21.6624 21.3333C18.7184 21.3333 16.3291 18.944 16.3291 16C16.3291 13.056 18.7184 10.6667 21.6624 10.6667C24.6064 10.6667 26.9958 13.056 26.9958 16Z" fill="#1ABCFE"/>
</g>
<defs>
<clipPath id="clip0_176_342">
<rect width="32" height="32" fill="white"/>
</clipPath>
</defs>
</svg>
