<svg width="64" height="64" viewBox="0 0 64 64" fill="none" xmlns="http://www.w3.org/2000/svg">
<g clip-path="url(#clip0_114_173)">
<path d="M21.9915 64C27.8795 64 32.6582 59.2214 32.6582 53.3334V42.6667H21.9915C16.1035 42.6667 11.3248 47.4454 11.3248 53.3334C11.3248 59.2214 16.1035 64 21.9915 64Z" fill="#0ACF83"/>
<path d="M11.3248 32C11.3248 26.112 16.1035 21.3333 21.9915 21.3333H32.6582V42.6666H21.9915C16.1035 42.6666 11.3248 37.888 11.3248 32Z" fill="#A259FF"/>
<path d="M11.3248 10.6667C11.3248 4.77867 16.1035 0 21.9915 0H32.6582V21.3333H21.9915C16.1035 21.3333 11.3248 16.5547 11.3248 10.6667Z" fill="#F24E1E"/>
<path d="M32.6582 0H43.3249C49.2129 0 53.9915 4.77867 53.9915 10.6667C53.9915 16.5547 49.2129 21.3333 43.3249 21.3333H32.6582V0Z" fill="#FF7262"/>
<path d="M53.9915 32C53.9915 37.888 49.2129 42.6666 43.3249 42.6666C37.4369 42.6666 32.6582 37.888 32.6582 32C32.6582 26.112 37.4369 21.3333 43.3249 21.3333C49.2129 21.3333 53.9915 26.112 53.9915 32Z" fill="#1ABCFE"/>
</g>
<defs>
<clipPath id="clip0_114_173">
<rect width="64" height="64" fill="white"/>
</clipPath>
</defs>
</svg>
