<svg width="32" height="32" viewBox="0 0 32 32" fill="none" xmlns="http://www.w3.org/2000/svg">
<g clip-path="url(#clip0_176_343)">
<path fill-rule="evenodd" clip-rule="evenodd" d="M16.1622 -0.104797C7.3269 -0.104797 0.162354 7.05816 0.162354 15.8951C0.162354 22.9645 4.7468 28.9617 11.104 31.0776C11.9034 31.2259 12.197 30.7305 12.197 30.3079C12.197 29.9264 12.1821 28.666 12.1752 27.329C7.72406 28.2969 6.78481 25.4413 6.78481 25.4413C6.05699 23.5919 5.00831 23.1002 5.00831 23.1002C3.55638 22.1071 5.11773 22.1278 5.11773 22.1278C6.72413 22.2404 7.57039 23.7766 7.57039 23.7766C8.99741 26.2221 11.3134 25.5152 12.2264 25.1066C12.37 24.0725 12.7846 23.3664 13.2422 22.9669C9.68841 22.5628 5.95233 21.1906 5.95233 15.0599C5.95233 13.3131 6.57761 11.8858 7.60112 10.7651C7.43473 10.3624 6.88708 8.73503 7.75585 6.53117C7.75585 6.53117 9.09915 6.10115 12.1567 8.17122C13.4332 7.81645 14.8022 7.63813 16.1622 7.63204C17.5214 7.63813 18.8912 7.81592 20.1701 8.17069C23.224 6.10062 24.5657 6.53064 24.5657 6.53064C25.4366 8.73424 24.8889 10.3618 24.7228 10.7646C25.7487 11.8853 26.3695 13.3126 26.3695 15.0594C26.3695 21.2047 22.6265 22.5575 19.0637 22.9539C19.6378 23.4504 20.1492 24.4244 20.1492 25.9168C20.1492 28.0577 20.1307 29.7806 20.1307 30.3076C20.1307 30.7334 20.4189 31.2323 21.2297 31.0752C27.5832 28.9572 32.1624 22.9618 32.1624 15.8951C32.1621 7.05868 24.9983 -0.104797 16.1622 -0.104797Z" fill="#181616"/>
<path d="M6.22236 22.8673C6.18712 22.9468 6.06207 22.9706 5.94814 22.9163C5.83156 22.8644 5.76665 22.756 5.80427 22.6762C5.83871 22.5941 5.96404 22.5716 6.07982 22.6264C6.1964 22.6786 6.26264 22.7881 6.2221 22.8675L6.22236 22.8673ZM6.87043 23.5903C6.79439 23.6611 6.64523 23.6282 6.54401 23.5161C6.43909 23.4049 6.41949 23.2557 6.49712 23.1839C6.57607 23.1134 6.72074 23.1468 6.82566 23.2581C6.93005 23.371 6.95071 23.5188 6.8707 23.5906L6.87043 23.5903ZM7.50155 24.5116C7.40352 24.5799 7.24295 24.5161 7.14386 24.3738C7.04583 24.2312 7.04583 24.0604 7.14651 23.9923C7.24534 23.9239 7.40352 23.9856 7.5042 24.1266C7.6017 24.271 7.6017 24.4421 7.50155 24.5116ZM8.36555 25.4021C8.27812 25.4988 8.09106 25.4728 7.95435 25.3411C7.81472 25.2121 7.77577 25.0285 7.86347 24.932C7.95249 24.8351 8.14034 24.8621 8.27785 24.993C8.41748 25.1217 8.45961 25.3056 8.36608 25.4018L8.36555 25.4021ZM9.55783 25.919C9.51889 26.0443 9.33925 26.1013 9.15776 26.0478C8.9768 25.9929 8.85836 25.8464 8.89546 25.7197C8.93255 25.5934 9.11351 25.5343 9.29606 25.5912C9.47702 25.6458 9.59546 25.7915 9.55783 25.919ZM10.8675 26.0146C10.872 26.1466 10.7183 26.2557 10.5283 26.2584C10.3368 26.2629 10.1818 26.1559 10.1799 26.026C10.1799 25.8928 10.3304 25.7849 10.5217 25.7812C10.7117 25.7778 10.8678 25.8837 10.8678 26.0144L10.8675 26.0146ZM12.0857 25.8074C12.1085 25.9359 11.9763 26.0682 11.7874 26.1034C11.6019 26.1378 11.4297 26.0578 11.4059 25.9304C11.3831 25.7984 11.5177 25.6662 11.7031 25.632C11.8923 25.5995 12.0619 25.6768 12.0857 25.8074Z" fill="#181616"/>
</g>
<defs>
<clipPath id="clip0_176_343">
<rect width="32" height="32" fill="white"/>
</clipPath>
</defs>
</svg>
