<svg width="64" height="64" viewBox="0 0 64 64" fill="none" xmlns="http://www.w3.org/2000/svg">
<g clip-path="url(#clip0_114_161)">
<path fill-rule="evenodd" clip-rule="evenodd" d="M32.3246 -0.209595C14.6539 -0.209595 0.324829 14.1163 0.324829 31.7901C0.324829 45.929 9.49373 57.9233 22.2082 62.1551C23.8069 62.4519 24.394 61.461 24.394 60.6158C24.394 59.8527 24.3644 57.332 24.3506 54.6581C15.4482 56.5938 13.5697 50.8825 13.5697 50.8825C12.1141 47.1838 10.0167 46.2003 10.0167 46.2003C7.11288 44.2142 10.2356 44.2556 10.2356 44.2556C13.4484 44.4808 15.1409 47.5531 15.1409 47.5531C17.9949 52.4441 22.6268 51.0304 24.4529 50.2133C24.7401 48.145 25.5694 46.7329 26.4845 45.9338C19.3769 45.1257 11.9048 42.3813 11.9048 30.1199C11.9048 26.6262 13.1554 23.7717 15.2024 21.5302C14.8696 20.7247 13.7743 17.4701 15.5118 13.0623C15.5118 13.0623 18.1984 12.2023 24.3135 16.3424C26.8666 15.6329 29.6046 15.2763 32.3246 15.2641C35.043 15.2763 37.7826 15.6318 40.3404 16.3414C46.448 12.2012 49.1315 13.0613 49.1315 13.0613C50.8733 17.4685 49.778 20.7237 49.4457 21.5291C51.4975 23.7706 52.739 26.6252 52.739 30.1188C52.739 42.4094 45.2531 45.1151 38.1275 45.9078C39.2758 46.9008 40.2985 48.8488 40.2985 51.8337C40.2985 56.1153 40.2614 59.5613 40.2614 60.6152C40.2614 61.4668 40.838 62.4646 42.4595 62.1504C55.1665 57.9143 64.3248 45.9237 64.3248 31.7901C64.3243 14.1174 49.9968 -0.209595 32.3246 -0.209595Z" fill="#fff"/>
<path d="M12.4447 45.7346C12.3742 45.8935 12.1241 45.9412 11.8963 45.8326C11.6631 45.7287 11.5333 45.512 11.6085 45.3525C11.6774 45.1882 11.9281 45.1432 12.1596 45.2529C12.3928 45.3573 12.5253 45.5761 12.4442 45.7351L12.4447 45.7346ZM13.7409 47.1807C13.5888 47.3221 13.2905 47.2564 13.088 47.0323C12.8782 46.8097 12.839 46.5114 12.9942 46.3678C13.1521 46.2268 13.4415 46.2936 13.6513 46.5162C13.8601 46.7419 13.9014 47.0376 13.7414 47.1812L13.7409 47.1807ZM15.0031 49.0231C14.807 49.1598 14.4859 49.0321 14.2877 48.7476C14.0917 48.4625 14.0917 48.1207 14.293 47.9845C14.4907 47.8478 14.807 47.9713 15.0084 48.2532C15.2034 48.542 15.2034 48.8843 15.0031 49.0231ZM16.7311 50.8041C16.5562 50.9975 16.1821 50.9456 15.9087 50.6823C15.6294 50.4242 15.5515 50.057 15.7269 49.8641C15.905 49.6701 16.2807 49.7242 16.5557 49.986C16.835 50.2435 16.9192 50.6112 16.7322 50.8036L16.7311 50.8041ZM19.1157 51.838C19.0378 52.0886 18.6785 52.2025 18.3155 52.0955C17.9536 51.9858 17.7167 51.6928 17.7909 51.4395C17.8651 51.1867 18.227 51.0686 18.5921 51.1825C18.954 51.2916 19.1909 51.5831 19.1157 51.838ZM21.735 52.0293C21.744 52.2932 21.4366 52.5115 21.0567 52.5168C20.6736 52.5258 20.3636 52.3117 20.3599 52.052C20.3599 51.7855 20.6609 51.5698 21.0434 51.5624C21.4234 51.5555 21.7355 51.7675 21.7355 52.0287L21.735 52.0293ZM24.1715 51.6149C24.217 51.8719 23.9526 52.1363 23.5748 52.2068C23.2039 52.2757 22.8594 52.1156 22.8117 51.8608C22.7662 51.5969 23.0354 51.3324 23.4063 51.2641C23.7846 51.1989 24.1238 51.3536 24.1715 51.6149Z" fill="#fff"/>
</g>
<defs>
<clipPath id="clip0_114_161">
<rect width="64" height="64" fill="white"/>
</clipPath>
</defs>
</svg>
