<svg width="32" height="32" viewBox="0 0 32 32" fill="none" xmlns="http://www.w3.org/2000/svg">
<g clip-path="url(#clip0_176_353)">
<path d="M5.66667 0.399994H26.3333C29.4667 0.399994 32 2.93333 32 6.06666V25.9333C32 29.0667 29.4667 31.6 26.3333 31.6H5.66667C2.53333 31.6 0 29.0667 0 25.9333V6.06666C0 2.93333 2.53333 0.399994 5.66667 0.399994Z" fill="#330000"/>
<path d="M15.4666 19.0667H10.5066L9.4933 22.2C9.46663 22.32 9.35996 22.4 9.23996 22.3867H6.7333C6.58663 22.3867 6.54663 22.3067 6.58663 22.1467L10.88 9.78667C10.92 9.65334 10.96 9.50667 11.0133 9.34667C11.0666 9.06667 11.0933 8.77334 11.0933 8.48001C11.08 8.41334 11.1333 8.34667 11.2 8.33334H14.6533C14.76 8.33334 14.8133 8.37334 14.8266 8.44001L19.6933 22.1733C19.7333 22.32 19.6933 22.3867 19.56 22.3867H16.7733C16.68 22.4 16.5866 22.3333 16.56 22.24L15.4666 19.0667ZM11.28 16.36H14.6666C14.5866 16.08 14.48 15.7467 14.36 15.4C14.24 15.04 14.12 14.6533 14 14.2533C13.8666 13.84 13.7466 13.44 13.6133 13.0267C13.48 12.6133 13.36 12.2267 13.2533 11.84C13.1466 11.4667 13.0533 11.12 12.96 10.8H12.9333C12.8133 11.3733 12.6666 11.9467 12.48 12.52C12.28 13.16 12.08 13.8267 11.8666 14.4933C11.68 15.1733 11.48 15.8 11.28 16.36ZM22.6666 10.6667C22.2266 10.68 21.8 10.5067 21.48 10.2C21.1733 9.86667 21.0133 9.42667 21.0266 8.97334C21.0133 8.52001 21.1866 8.09334 21.5066 7.78667C21.8266 7.48001 22.2533 7.32001 22.6933 7.32001C23.2133 7.32001 23.6133 7.48001 23.9066 7.78667C24.2 8.10667 24.36 8.53334 24.3466 8.97334C24.36 9.42667 24.2 9.86667 23.88 10.2C23.5733 10.52 23.12 10.6933 22.6666 10.6667ZM21.1733 22.24V11.9733C21.1733 11.84 21.2266 11.7867 21.3466 11.7867H23.9866C24.1066 11.7867 24.16 11.8533 24.16 11.9733V22.24C24.16 22.3867 24.1066 22.4533 23.9866 22.4533H21.3733C21.24 22.4533 21.1733 22.3733 21.1733 22.24Z" fill="#FF9A00"/>
</g>
<defs>
<clipPath id="clip0_176_353">
<rect width="32" height="32" fill="white"/>
</clipPath>
</defs>
</svg>
