<svg width="65" height="64" viewBox="0 0 65 64" fill="none" xmlns="http://www.w3.org/2000/svg">
<g clip-path="url(#clip0_116_278)">
<path d="M12.3317 0.799988H53.6651C59.9317 0.799988 64.9984 5.86665 64.9984 12.1333V51.8667C64.9984 58.1333 59.9317 63.2 53.6651 63.2H12.3317C6.06508 63.2 0.998413 58.1333 0.998413 51.8667V12.1333C0.998413 5.86665 6.06508 0.799988 12.3317 0.799988Z" fill="#330000"/>
<path d="M31.9318 38.1333H22.0118L19.9851 44.4C19.9318 44.64 19.7185 44.8 19.4785 44.7733H14.4651C14.1718 44.7733 14.0918 44.6133 14.1718 44.2933L22.7585 19.5733C22.8385 19.3067 22.9185 19.0133 23.0251 18.6933C23.1318 18.1333 23.1851 17.5467 23.1851 16.96C23.1585 16.8267 23.2651 16.6933 23.3985 16.6667H30.3051C30.5185 16.6667 30.6251 16.7467 30.6518 16.88L40.3851 44.3467C40.4651 44.64 40.3851 44.7733 40.1185 44.7733H34.5451C34.3585 44.8 34.1718 44.6667 34.1185 44.48L31.9318 38.1333ZM23.5585 32.72H30.3318C30.1718 32.16 29.9585 31.4933 29.7185 30.8C29.4785 30.08 29.2385 29.3067 28.9985 28.5067C28.7318 27.68 28.4918 26.88 28.2251 26.0533C27.9585 25.2267 27.7185 24.4533 27.5051 23.68C27.2918 22.9333 27.1051 22.24 26.9185 21.6H26.8651C26.6251 22.7467 26.3318 23.8933 25.9585 25.04C25.5585 26.32 25.1585 27.6533 24.7318 28.9867C24.3585 30.3467 23.9585 31.6 23.5585 32.72ZM46.3318 21.3333C45.4518 21.36 44.5985 21.0133 43.9585 20.4C43.3451 19.7333 43.0251 18.8533 43.0518 17.9467C43.0251 17.04 43.3718 16.1867 44.0118 15.5733C44.6518 14.96 45.5051 14.64 46.3851 14.64C47.4251 14.64 48.2251 14.96 48.8118 15.5733C49.3985 16.2133 49.7185 17.0667 49.6918 17.9467C49.7185 18.8533 49.3985 19.7333 48.7585 20.4C48.1451 21.04 47.2385 21.3867 46.3318 21.3333ZM43.3451 44.48V23.9467C43.3451 23.68 43.4518 23.5733 43.6918 23.5733H48.9718C49.2118 23.5733 49.3185 23.7067 49.3185 23.9467V44.48C49.3185 44.7733 49.2118 44.9067 48.9718 44.9067H43.7451C43.4785 44.9067 43.3451 44.7467 43.3451 44.48Z" fill="#FF9A00"/>
</g>
<defs>
<clipPath id="clip0_116_278">
<rect width="64" height="64" fill="white" transform="translate(0.998413)"/>
</clipPath>
</defs>
</svg>
