<svg width="32" height="32" viewBox="0 0 32 32" fill="none" xmlns="http://www.w3.org/2000/svg">
<g clip-path="url(#clip0_176_341)">
<path d="M5.66667 0.5H26.3333C29.4667 0.5 32 3.03333 32 6.16667V26.0333C32 29.1667 29.4667 31.7 26.3333 31.7H5.66667C2.53333 31.7 0 29.1667 0 26.0333V6.16667C0 3.03333 2.53333 0.5 5.66667 0.5Z" fill="#001E36"/>
<path d="M7.19995 22.38V8.65999C7.19995 8.56665 7.23995 8.51332 7.33328 8.51332C7.55995 8.51332 7.77328 8.51332 8.07995 8.49999C8.39995 8.48665 8.73328 8.48665 9.09328 8.47332C9.45328 8.45999 9.83995 8.45999 10.2533 8.44665C10.6666 8.43332 11.0666 8.43332 11.4666 8.43332C12.56 8.43332 13.4666 8.56665 14.2133 8.84665C14.88 9.07332 15.4933 9.44665 16 9.93999C16.4266 10.3667 16.76 10.8867 16.9733 11.46C17.1733 12.02 17.28 12.5933 17.28 13.1933C17.28 14.34 17.0133 15.2867 16.48 16.0333C15.9466 16.78 15.2 17.34 14.3333 17.66C13.4266 17.9933 12.4266 18.1133 11.3333 18.1133C11.0133 18.1133 10.8 18.1133 10.6666 18.1C10.5333 18.0867 10.3466 18.0867 10.0933 18.0867V22.3667C10.1066 22.46 10.04 22.54 9.94662 22.5533C9.93328 22.5533 9.91995 22.5533 9.89328 22.5533H7.35995C7.25328 22.5533 7.19995 22.5 7.19995 22.38ZM10.1066 11.0867V15.5667C10.2933 15.58 10.4666 15.5933 10.6266 15.5933H11.3333C11.8533 15.5933 12.3733 15.5133 12.8666 15.3533C13.2933 15.2333 13.6666 14.98 13.96 14.6467C14.24 14.3133 14.3733 13.86 14.3733 13.2733C14.3866 12.86 14.28 12.4467 14.0666 12.0867C13.84 11.74 13.52 11.4733 13.1333 11.3267C12.64 11.1267 12.1066 11.0467 11.56 11.06C11.2133 11.06 10.9066 11.06 10.6533 11.0733C10.3866 11.06 10.2 11.0733 10.1066 11.0867Z" fill="#31A8FF"/>
<path d="M25.6 14.7533C25.2 14.54 24.7733 14.3933 24.32 14.3C23.8267 14.1933 23.3333 14.1267 22.8267 14.1267C22.56 14.1133 22.28 14.1533 22.0267 14.22C21.8533 14.26 21.7067 14.3533 21.6133 14.4867C21.5467 14.5933 21.5067 14.7267 21.5067 14.8467C21.5067 14.9667 21.56 15.0867 21.64 15.1933C21.76 15.34 21.92 15.46 22.0933 15.5533C22.4 15.7133 22.72 15.86 23.04 15.9933C23.76 16.2333 24.4533 16.5667 25.0933 16.9667C25.5333 17.2467 25.8933 17.62 26.1467 18.0733C26.36 18.5 26.4667 18.9667 26.4533 19.4467C26.4667 20.0733 26.28 20.7 25.9333 21.22C25.56 21.7533 25.04 22.1667 24.44 22.4067C23.7867 22.6867 22.9867 22.8333 22.0267 22.8333C21.4133 22.8333 20.8133 22.78 20.2133 22.66C19.7467 22.58 19.28 22.4333 18.8533 22.2333C18.76 22.18 18.6933 22.0867 18.7067 21.98V19.66C18.7067 19.62 18.72 19.5667 18.76 19.54C18.8 19.5133 18.84 19.5267 18.88 19.5533C19.4 19.86 19.9467 20.0733 20.5333 20.2067C21.04 20.34 21.5733 20.4067 22.1067 20.4067C22.6133 20.4067 22.9733 20.34 23.2133 20.22C23.4267 20.1267 23.5733 19.9 23.5733 19.66C23.5733 19.4733 23.4667 19.3 23.2533 19.1267C23.04 18.9533 22.6 18.7533 21.9467 18.5C21.2667 18.26 20.64 17.94 20.0533 17.54C19.64 17.2467 19.2933 16.86 19.04 16.4067C18.8267 15.98 18.72 15.5133 18.7333 15.0467C18.7333 14.4733 18.8933 13.9267 19.1867 13.4333C19.52 12.9 20.0133 12.4733 20.5867 12.2067C21.2133 11.8867 22 11.74 22.9467 11.74C23.4933 11.74 24.0533 11.78 24.6 11.86C25 11.9133 25.3867 12.02 25.7467 12.1667C25.8 12.18 25.8533 12.2333 25.88 12.2867C25.8933 12.34 25.9067 12.3933 25.9067 12.4467V14.62C25.9067 14.6733 25.88 14.7267 25.84 14.7533C25.72 14.78 25.6533 14.78 25.6 14.7533Z" fill="#31A8FF"/>
</g>
<defs>
<clipPath id="clip0_176_341">
<rect width="32" height="32" fill="white"/>
</clipPath>
</defs>
</svg>
