<svg width="32" height="32" viewBox="0 0 32 32" fill="none" xmlns="http://www.w3.org/2000/svg">
<path d="M26.1375 11.0735C25.8 10.961 25.4625 10.8547 25.125 10.7547C25.1812 10.5235 25.2313 10.2922 25.2812 10.061C26.05 6.33599 25.5437 3.34224 23.8375 2.35474C22.1938 1.41099 19.5125 2.39224 16.8 4.75474C16.5312 4.98599 16.2687 5.22974 16.0187 5.47349C15.85 5.31099 15.675 5.14849 15.5 4.99224C12.6562 2.46724 9.80625 1.40474 8.1 2.39849C6.4625 3.34849 5.975 6.16724 6.6625 9.69224C6.73125 10.0422 6.80625 10.386 6.89375 10.736C6.49375 10.8485 6.1 10.9735 5.73125 11.1047C2.39375 12.261 0 14.086 0 15.9735C0 17.9235 2.55 19.8797 6.01875 21.0672C6.3 21.161 6.58125 21.2547 6.86875 21.336C6.775 21.711 6.69375 22.0797 6.61875 22.461C5.9625 25.9297 6.475 28.6797 8.1125 29.6235C9.8 30.5985 12.6375 29.5985 15.4 27.1797C15.6187 26.986 15.8375 26.786 16.0562 26.5735C16.3312 26.8422 16.6187 27.0985 16.9062 27.3485C19.5812 29.6485 22.225 30.5797 23.8563 29.636C25.5438 28.661 26.0938 25.7047 25.3813 22.1047C25.325 21.8297 25.2625 21.5485 25.1938 21.261C25.3938 21.2047 25.5875 21.1422 25.7812 21.0797C29.3875 19.886 32 17.9547 32 15.9735C32 14.0797 29.5375 12.2422 26.1375 11.0735ZM17.6812 5.76724C20.0063 3.74224 22.175 2.94849 23.1625 3.51724C24.2188 4.12349 24.625 6.57349 23.9625 9.79224C23.9187 10.0047 23.875 10.211 23.8188 10.4172C22.4312 10.1047 21.025 9.87974 19.6125 9.75474C18.8 8.59224 17.9125 7.47974 16.95 6.43599C17.1938 6.20474 17.4312 5.98599 17.6812 5.76724ZM10.45 19.2172C10.7688 19.761 11.0938 20.3047 11.4375 20.836C10.4625 20.7297 9.49375 20.5735 8.5375 20.3672C8.8125 19.4672 9.15625 18.536 9.55625 17.586C9.84375 18.136 10.1375 18.6797 10.45 19.2172ZM8.55625 11.6985C9.45625 11.4985 10.4125 11.336 11.4062 11.211C11.075 11.7297 10.75 12.261 10.4438 12.7985C10.1375 13.3297 9.8375 13.8735 9.55625 14.4235C9.1625 13.4922 8.83125 12.5797 8.55625 11.6985ZM10.2688 16.0047C10.6813 15.1422 11.1312 14.2985 11.6062 13.4672C12.0813 12.636 12.5938 11.8297 13.1313 11.036C14.0688 10.9672 15.025 10.9297 16 10.9297C16.975 10.9297 17.9375 10.9672 18.8687 11.036C19.4 11.8235 19.9062 12.6297 20.3875 13.4547C20.8688 14.2797 21.3188 15.1235 21.7437 15.9797C21.325 16.8422 20.875 17.6922 20.3937 18.5297C19.9187 19.361 19.4125 20.1672 18.8813 20.9672C17.95 21.036 16.9813 21.0672 16 21.0672C15.0188 21.0672 14.0687 21.036 13.15 20.9797C12.6062 20.186 12.0938 19.3735 11.6125 18.5422C11.1313 17.711 10.6875 16.8672 10.2688 16.0047ZM21.5562 19.2047C21.875 18.6547 22.175 18.0985 22.4688 17.536C22.8687 18.4422 23.2188 19.361 23.525 20.3047C22.5562 20.5235 21.575 20.6922 20.5875 20.8047C20.925 20.2797 21.2437 19.7422 21.5562 19.2047ZM22.4562 14.4235C22.1625 13.8735 21.8625 13.3235 21.55 12.786C21.2437 12.2547 20.925 11.7297 20.5938 11.211C21.6 11.336 22.5625 11.5047 23.4625 11.711C23.175 12.636 22.8375 13.536 22.4562 14.4235ZM16.0125 7.39224C16.6688 8.10474 17.2875 8.85474 17.8625 9.62974C16.625 9.57349 15.3813 9.57349 14.1438 9.62974C14.7563 8.82349 15.3875 8.07349 16.0125 7.39224ZM8.7625 3.56099C9.8125 2.94849 12.1438 3.82349 14.6 5.99849C14.7563 6.13599 14.9125 6.28599 15.075 6.43599C14.1062 7.47974 13.2125 8.59224 12.3938 9.75474C10.9812 9.87974 9.58125 10.0985 8.19375 10.4047C8.1125 10.086 8.04375 9.76099 7.975 9.43599C7.3875 6.41099 7.775 4.12974 8.7625 3.56099ZM7.23125 20.036C6.96875 19.961 6.7125 19.8797 6.45625 19.7922C5.125 19.3735 3.6125 18.711 2.51875 17.8422C1.8875 17.4047 1.4625 16.7297 1.34375 15.9735C1.34375 14.8297 3.31875 13.3672 6.16875 12.3735C6.525 12.2485 6.8875 12.136 7.25 12.0297C7.675 13.386 8.1875 14.7172 8.78125 16.0047C8.18125 17.311 7.6625 18.661 7.23125 20.036ZM14.5188 26.161C13.4875 27.1047 12.2937 27.8547 10.9937 28.3672C10.3 28.6985 9.5 28.7297 8.7875 28.4485C7.79375 27.8735 7.38125 25.6672 7.94375 22.6985C8.0125 22.3485 8.0875 21.9985 8.175 21.6547C9.575 21.9547 10.9875 22.161 12.4187 22.2672C13.2437 23.436 14.15 24.5547 15.1187 25.6047C14.9187 25.7985 14.7188 25.986 14.5188 26.161ZM16.05 24.6422C15.4125 23.9547 14.775 23.1922 14.1562 22.3735C14.7563 22.3985 15.375 22.411 16 22.411C16.6437 22.411 17.275 22.3985 17.9 22.3672C17.325 23.161 16.7062 23.9172 16.05 24.6422ZM24.2188 26.5172C24.1625 27.2797 23.7875 27.9922 23.1875 28.4735C22.1938 29.0485 20.075 28.2985 17.7875 26.336C17.525 26.111 17.2625 25.8672 16.9937 25.6172C17.95 24.561 18.8313 23.4422 19.6313 22.2672C21.0625 22.1485 22.4875 21.9297 23.8937 21.611C23.9562 21.8672 24.0125 22.1235 24.0625 22.3735C24.3687 23.7235 24.4188 25.1297 24.2188 26.5172ZM25.3563 19.7985C25.1813 19.8547 25.0063 19.911 24.825 19.961C24.3875 18.5985 23.85 17.2672 23.2313 15.9735C23.8313 14.6985 24.3375 13.386 24.7625 12.0422C25.0875 12.136 25.4 12.236 25.7 12.336C28.6125 13.336 30.6562 14.8235 30.6562 15.961C30.6562 17.186 28.475 18.7672 25.3563 19.7985ZM16 18.861C17.5812 18.861 18.8625 17.5797 18.8625 15.9985C18.8625 14.4172 17.5812 13.136 16 13.136C14.4187 13.136 13.1375 14.4172 13.1375 15.9985C13.1375 17.5797 14.4187 18.861 16 18.861Z" fill="#61DAFB"/>
</svg>
