<svg width="32" height="32" viewBox="0 0 32 32" fill="none" xmlns="http://www.w3.org/2000/svg">
<path d="M31.1915 4.87995L16.8306 30.5596C16.5341 31.0898 15.7724 31.0929 15.4714 30.5653L0.825859 4.88242C0.497989 4.30746 0.989644 3.61102 1.64119 3.72748L16.0174 6.29714C16.1091 6.31353 16.203 6.31338 16.2947 6.29667L30.3702 3.73116C31.0196 3.61281 31.5136 4.30385 31.1915 4.87995Z" fill="url(#paint0_linear_176_347)"/>
<path d="M22.8656 0.357023L12.2381 2.43943C12.0635 2.47365 11.9341 2.62168 11.9236 2.79933L11.2699 13.8404C11.2545 14.1004 11.4933 14.3023 11.7471 14.2437L14.706 13.5609C14.9828 13.4971 15.233 13.7409 15.1761 14.0193L14.297 18.3239C14.2378 18.6136 14.5098 18.8613 14.7928 18.7754L16.6203 18.2202C16.9036 18.1342 17.1758 18.3826 17.1159 18.6725L15.7189 25.4341C15.6315 25.8571 16.194 26.0877 16.4287 25.7251L16.5854 25.4829L25.2452 8.20074C25.3902 7.91137 25.1402 7.58142 24.8223 7.64275L21.7767 8.23055C21.4905 8.28573 21.247 8.0192 21.3278 7.73918L23.3156 0.848144C23.3965 0.567656 23.1521 0.300889 22.8656 0.357023Z" fill="url(#paint1_linear_176_347)"/>
<defs>
<linearGradient id="paint0_linear_176_347" x1="0.468277" y1="2.80973" x2="18.3414" y2="27.0829" gradientUnits="userSpaceOnUse">
<stop stop-color="#41D1FF"/>
<stop offset="1" stop-color="#BD34FE"/>
</linearGradient>
<linearGradient id="paint1_linear_176_347" x1="15.1923" y1="0.922391" x2="18.4255" y2="23.1016" gradientUnits="userSpaceOnUse">
<stop stop-color="#FFEA83"/>
<stop offset="0.0833333" stop-color="#FFDD35"/>
<stop offset="1" stop-color="#FFA800"/>
</linearGradient>
</defs>
</svg>
