<svg xmlns="http://www.w3.org/2000/svg" width="64" height="64" fill="none"><g fill="#fff" clip-path="url(#a)"><path fill-rule="evenodd" d="M32.325-.21c-17.671 0-32 14.326-32 32 0 14.139 9.169 26.133 21.883 30.365 1.599.297 2.186-.694 2.186-1.54 0-.762-.03-3.283-.043-5.957-8.903 1.936-10.781-3.776-10.781-3.776-1.456-3.698-3.553-4.682-3.553-4.682-2.904-1.986.219-1.944.219-1.944 3.212.225 4.905 3.297 4.905 3.297 2.854 4.891 7.486 3.477 9.312 2.66.287-2.068 1.116-3.48 2.032-4.28-7.108-.807-14.58-3.552-14.58-15.813 0-3.494 1.25-6.348 3.297-8.59-.332-.805-1.428-4.06.31-8.468 0 0 2.686-.86 8.802 3.28 2.553-.71 5.29-1.066 8.01-1.078 2.719.012 5.459.368 8.016 1.077 6.108-4.14 8.791-3.28 8.791-3.28 1.742 4.407.647 7.663.315 8.468 2.052 2.242 3.293 5.096 3.293 8.59 0 12.29-7.486 14.996-14.611 15.789 1.148.993 2.17 2.94 2.17 5.926 0 4.281-.037 7.727-.037 8.781 0 .852.577 1.85 2.198 1.535 12.707-4.236 21.866-16.226 21.866-30.36 0-17.673-14.328-32-32-32Z" clip-rule="evenodd"/><path d="M12.445 45.735c-.07.159-.32.206-.549.098-.233-.104-.363-.321-.288-.48.07-.165.32-.21.552-.1.233.104.365.323.284.482Zm1.296 1.446c-.152.141-.45.075-.653-.149-.21-.222-.249-.52-.094-.664.158-.141.447-.074.657.148.21.226.25.522.09.665Zm1.262 1.842c-.196.137-.517.01-.715-.275-.196-.285-.196-.627.005-.764.198-.136.514-.013.715.27.195.288.195.63-.005.77Zm1.728 1.781c-.175.194-.549.142-.822-.122-.28-.258-.357-.625-.182-.818.178-.194.554-.14.829.122.279.258.363.625.176.818Zm2.385 1.034c-.078.25-.438.364-.8.258-.362-.11-.6-.403-.525-.656.074-.253.436-.371.801-.258.362.11.599.401.524.656Zm2.619.191c.009.264-.298.482-.678.488-.383.009-.693-.205-.697-.465 0-.267.3-.482.683-.49.38-.006.692.206.692.467Zm2.437-.414c.045.257-.22.521-.597.592-.371.069-.716-.091-.763-.346-.046-.264.223-.529.594-.597.379-.065.718.09.766.35Z"/></g><defs><clipPath id="a"><path fill="#fff" d="M0 0h64v64H0z"/></clipPath></defs></svg>