<svg xmlns="http://www.w3.org/2000/svg" width="64" height="64" fill="none"><path fill="#E65100" d="M60 0H4l4.941 57.263L32 64l23.059-6.737L60 0Z"/><path fill="#FF6D00" d="M32 5.333v53.334l19.075-5.35 4.258-47.984H32Z"/><path fill="#fff" d="M32 33.605v-6.757h14.333l-1.166 19.427L32 50.667v-7.095l6.833-2.365.5-7.602H32ZM46.833 20.09l.5-6.758H32v6.757h14.833Z"/><path fill="#EEE" d="M32 43.572v7.095l-13.311-4.392-.674-9.292h6.74l.337 4.224L32 43.572ZM23.744 20.09H32v-6.757H16.667l1.18 20.272H32v-6.757h-7.751l-.505-6.758Z"/></svg>