<svg xmlns="http://www.w3.org/2000/svg" width="64" height="64" fill="none"><g clip-path="url(#a)"><path fill="#F7DF1E" d="M0 0h64v64H0V0Z"/><path fill="#000" d="m16.828 53.483 4.898-2.964c.945 1.675 1.804 3.093 3.866 3.093 1.976 0 3.222-.773 3.222-3.78v-20.45h6.014v20.535c0 6.229-3.651 9.064-8.979 9.064-4.81 0-7.604-2.491-9.021-5.498m21.267-.644 4.897-2.836c1.29 2.105 2.965 3.652 5.929 3.652 2.492 0 4.081-1.246 4.081-2.965 0-2.061-1.632-2.792-4.382-3.994l-1.503-.645c-4.34-1.847-7.217-4.167-7.217-9.065 0-4.51 3.436-7.948 8.806-7.948 3.824 0 6.573 1.332 8.55 4.812l-4.684 3.008c-1.03-1.848-2.147-2.578-3.866-2.578-1.761 0-2.878 1.117-2.878 2.578 0 1.804 1.117 2.535 3.694 3.652l1.504.644c5.112 2.191 7.99 4.425 7.99 9.45 0 5.414-4.252 8.378-9.966 8.378-5.585 0-9.194-2.663-10.955-6.143"/></g><defs><clipPath id="a"><path fill="#fff" d="M0 0h64v64H0z"/></clipPath></defs></svg>