<svg xmlns="http://www.w3.org/2000/svg" width="65" height="64" fill="none"><g clip-path="url(#a)"><path fill="#001E36" d="M12.332 1h41.333a11.324 11.324 0 0 1 11.333 11.333v39.734A11.324 11.324 0 0 1 53.665 63.4H12.332A11.324 11.324 0 0 1 .998 52.067V12.333A11.324 11.324 0 0 1 12.332 1Z"/><path fill="#31A8FF" d="M15.398 44.76V17.32c0-.187.08-.293.267-.293.453 0 .88 0 1.493-.027.64-.027 1.307-.027 2.027-.053.72-.027 1.493-.027 2.32-.054.827-.026 1.627-.026 2.427-.026 2.186 0 4 .266 5.493.826a9.522 9.522 0 0 1 3.573 2.187 8.49 8.49 0 0 1 1.947 3.04c.4 1.12.613 2.267.613 3.467 0 2.293-.533 4.186-1.6 5.68a9.135 9.135 0 0 1-4.293 3.253c-1.813.667-3.813.907-6 .907-.64 0-1.067 0-1.333-.027-.267-.027-.64-.027-1.147-.027v8.56a.332.332 0 0 1-.293.374h-5.174c-.213 0-.32-.107-.32-.347Zm5.814-22.587v8.96c.373.027.72.054 1.04.054h1.413c1.04 0 2.08-.16 3.067-.48.853-.24 1.6-.747 2.186-1.414.56-.666.827-1.573.827-2.746a4.39 4.39 0 0 0-.613-2.374 3.868 3.868 0 0 0-1.867-1.52c-.987-.4-2.053-.56-3.147-.533-.693 0-1.306 0-1.813.027-.533-.027-.907 0-1.093.026ZM52.198 29.507a9.438 9.438 0 0 0-2.56-.907c-.986-.213-1.973-.347-2.986-.347a5.366 5.366 0 0 0-1.6.187c-.347.08-.64.267-.827.533-.133.214-.213.48-.213.72s.106.48.266.694c.24.293.56.533.907.72.613.32 1.253.613 1.893.88 1.44.48 2.827 1.146 4.107 1.946.88.56 1.6 1.307 2.107 2.214.426.853.64 1.786.613 2.746a6.205 6.205 0 0 1-1.04 3.547 6.683 6.683 0 0 1-2.987 2.373c-1.306.56-2.906.854-4.826.854-1.227 0-2.427-.107-3.627-.347a10.756 10.756 0 0 1-2.72-.853c-.187-.107-.32-.294-.293-.507v-4.64c0-.08.026-.187.106-.24.08-.053.16-.027.24.027 1.04.613 2.134 1.04 3.307 1.306 1.013.267 2.08.4 3.147.4 1.013 0 1.733-.133 2.213-.373.427-.187.72-.64.72-1.12 0-.373-.213-.72-.64-1.067-.427-.346-1.307-.746-2.613-1.253a16.315 16.315 0 0 1-3.787-1.92 6.905 6.905 0 0 1-2.027-2.267 5.721 5.721 0 0 1-.613-2.72c0-1.146.32-2.24.907-3.226a6.574 6.574 0 0 1 2.8-2.454c1.253-.64 2.826-.933 4.72-.933 1.093 0 2.213.08 3.306.24.8.107 1.574.32 2.294.613.106.027.213.134.266.24.027.107.054.214.054.32v4.347a.328.328 0 0 1-.134.267c-.24.053-.373.053-.48 0Z"/></g><defs><clipPath id="a"><path fill="#fff" d="M.998 0h64v64h-64z"/></clipPath></defs></svg>