<svg xmlns="http://www.w3.org/2000/svg" width="64" height="64" fill="none"><path fill="#61DAFB" d="M52.275 22.147a63.005 63.005 0 0 0-2.025-.637c.112-.463.212-.926.313-1.388 1.537-7.45.524-13.438-2.888-15.413-3.287-1.887-8.65.075-14.075 4.8-.538.463-1.063.95-1.563 1.438-.337-.325-.687-.65-1.037-.963-5.688-5.05-11.387-7.175-14.8-5.187-3.275 1.9-4.25 7.538-2.875 14.587.138.7.288 1.388.463 2.088-.8.225-1.588.475-2.325.737C4.788 24.522 0 28.172 0 31.947c0 3.9 5.1 7.813 12.037 10.188a38.39 38.39 0 0 0 1.7.537c-.187.75-.35 1.488-.5 2.25-1.312 6.938-.287 12.438 2.988 14.325 3.375 1.95 9.05-.05 14.575-4.888.438-.387.875-.787 1.312-1.212.55.538 1.125 1.05 1.7 1.55 5.35 4.6 10.638 6.462 13.9 4.575 3.375-1.95 4.475-7.862 3.05-15.063a52.472 52.472 0 0 0-.374-1.687c.4-.112.787-.237 1.175-.362C58.775 39.772 64 35.91 64 31.947c0-3.787-4.925-7.462-11.725-9.8ZM35.362 11.535c4.65-4.05 8.988-5.638 10.963-4.5 2.112 1.212 2.925 6.112 1.6 12.55-.087.424-.175.837-.287 1.25a63.99 63.99 0 0 0-8.413-1.326 63.156 63.156 0 0 0-5.325-6.637c.488-.463.962-.9 1.462-1.338ZM20.9 38.434a86.073 86.073 0 0 0 1.975 3.237 56.602 56.602 0 0 1-5.8-.938c.55-1.8 1.238-3.662 2.038-5.562a82.589 82.589 0 0 0 1.787 3.263Zm-3.787-15.038c1.8-.4 3.712-.725 5.7-.975a73.896 73.896 0 0 0-1.925 3.175 73.909 73.909 0 0 0-1.776 3.25 59.6 59.6 0 0 1-2-5.45Zm3.425 8.613a78.542 78.542 0 0 1 2.674-5.075 75.379 75.379 0 0 1 3.05-4.863A78.404 78.404 0 0 1 32 21.86c1.95 0 3.875.075 5.737.212a87.33 87.33 0 0 1 3.038 4.838 85.144 85.144 0 0 1 2.712 5.05 82.942 82.942 0 0 1-2.7 5.1 85.38 85.38 0 0 1-3.024 4.874c-1.863.138-3.8.2-5.763.2a93.22 93.22 0 0 1-5.7-.175 76.012 76.012 0 0 1-5.762-9.95Zm22.574 6.4a86.348 86.348 0 0 0 1.825-3.338c.8 1.813 1.5 3.65 2.113 5.537-1.938.438-3.9.776-5.875 1a83.727 83.727 0 0 0 1.938-3.2Zm1.8-9.563c-.587-1.1-1.187-2.2-1.812-3.275a81.26 81.26 0 0 0-1.913-3.15c2.013.25 3.938.587 5.738 1a55.32 55.32 0 0 1-2.012 5.425ZM32.026 14.784a54.89 54.89 0 0 1 3.7 4.475 81.992 81.992 0 0 0-7.438 0 63.149 63.149 0 0 1 3.738-4.475Zm-14.5-7.662c2.1-1.225 6.763.525 11.675 4.875.313.275.625.575.95.875a63.507 63.507 0 0 0-5.362 6.637c-2.826.25-5.625.688-8.4 1.3-.163-.637-.3-1.287-.438-1.937-1.175-6.05-.4-10.613 1.575-11.75Zm-3.062 32.95a31.893 31.893 0 0 1-1.55-.488c-2.663-.837-5.688-2.162-7.876-3.9a5.609 5.609 0 0 1-2.35-3.737c0-2.287 3.95-5.212 9.65-7.2.713-.25 1.438-.475 2.163-.688a66.468 66.468 0 0 0 3.063 7.95 68.328 68.328 0 0 0-3.1 8.063Zm14.575 12.25a22.879 22.879 0 0 1-7.05 4.412 5.533 5.533 0 0 1-4.413.163c-1.987-1.15-2.813-5.563-1.688-11.5.138-.7.288-1.4.463-2.087 2.8.6 5.625 1.012 8.487 1.224a65.965 65.965 0 0 0 5.4 6.675c-.4.388-.8.763-1.2 1.113Zm3.062-3.038a59.117 59.117 0 0 1-3.788-4.537 88.9 88.9 0 0 0 3.688.075c1.288 0 2.55-.025 3.8-.088a53.906 53.906 0 0 1-3.7 4.55Zm16.337 3.75a5.555 5.555 0 0 1-2.062 3.913c-1.987 1.15-6.225-.35-10.8-4.275-.525-.45-1.05-.938-1.588-1.438a61.836 61.836 0 0 0 5.276-6.7 61.62 61.62 0 0 0 8.525-1.312c.125.512.237 1.025.337 1.525.612 2.7.712 5.513.313 8.288Zm2.276-13.437c-.35.112-.7.225-1.063.325a63.5 63.5 0 0 0-3.188-7.975 63.183 63.183 0 0 0 3.063-7.863c.65.188 1.275.388 1.875.588 5.825 2 9.913 4.975 9.913 7.25 0 2.45-4.363 5.613-10.6 7.675ZM32 37.722a5.724 5.724 0 0 0 5.725-5.725A5.724 5.724 0 0 0 32 26.272a5.724 5.724 0 0 0-5.725 5.725A5.724 5.724 0 0 0 32 37.722Z"/></svg>