<svg xmlns="http://www.w3.org/2000/svg" width="64" height="64" fill="none"><g fill="#764ABC" clip-path="url(#a)"><path d="M44.345 44.432c2.362-.245 4.154-2.28 4.072-4.724-.081-2.443-2.117-4.398-4.56-4.398h-.163c-2.525.082-4.48 2.2-4.398 4.724.081 1.221.57 2.28 1.303 3.013-2.77 5.457-7.004 9.448-13.357 12.787-4.316 2.28-8.796 3.094-13.275 2.524-3.665-.488-6.515-2.117-8.307-4.805-2.606-3.99-2.85-8.307-.652-12.623 1.548-3.095 3.991-5.376 5.538-6.516-.325-1.059-.814-2.85-1.058-4.153C-2.322 38.812-1.1 50.377 2.484 55.834c2.687 4.072 8.144 6.596 14.17 6.596 1.63 0 3.258-.162 4.887-.57 10.425-2.036 18.325-8.225 22.804-17.428Z"/><path d="M58.68 34.333c-6.19-7.249-15.312-11.24-25.737-11.24H31.64c-.733-1.465-2.28-2.442-3.99-2.442h-.163c-2.525.08-4.48 2.198-4.398 4.723.081 2.443 2.117 4.398 4.56 4.398h.163a4.588 4.588 0 0 0 3.991-2.769h1.466c6.19 0 12.054 1.792 17.347 5.294 4.072 2.687 7.005 6.19 8.633 10.424 1.385 3.421 1.303 6.76-.163 9.61-2.28 4.317-6.108 6.679-11.157 6.679-3.258 0-6.353-.977-7.982-1.71-.896.814-2.524 2.117-3.665 2.932 3.503 1.629 7.086 2.524 10.507 2.524 7.818 0 13.6-4.316 15.8-8.633 2.361-4.723 2.198-12.867-3.91-19.79Z"/><path d="M17.306 45.816c.082 2.444 2.118 4.398 4.561 4.398h.163c2.525-.081 4.48-2.199 4.398-4.724-.082-2.443-2.118-4.398-4.56-4.398h-.164c-.163 0-.407 0-.57.082-3.339-5.538-4.724-11.565-4.235-18.08.326-4.887 1.955-9.122 4.805-12.624 2.362-3.013 6.923-4.48 10.018-4.56 8.633-.164 12.297 10.587 12.542 14.903 1.059.245 2.85.815 4.072 1.222C47.359 8.84 39.214 2 31.396 2c-7.33 0-14.09 5.294-16.777 13.112-3.747 10.425-1.303 20.442 3.257 28.342-.407.57-.651 1.466-.57 2.362Z"/></g><defs><clipPath id="a"><path fill="#fff" d="M0 0h64v64H0z"/></clipPath></defs></svg>