<svg width="32" height="32" viewBox="0 0 32 32" fill="none" xmlns="http://www.w3.org/2000/svg">
<g clip-path="url(#clip0_176_350)">
<path d="M22.1726 22.2159C23.3535 22.0937 24.2494 21.0757 24.2087 19.854C24.168 18.6324 23.1499 17.6551 21.9283 17.6551H21.8469C20.5845 17.6958 19.6072 18.7545 19.6479 20.0169C19.6886 20.6277 19.9329 21.1571 20.2994 21.5236C18.9149 24.2519 16.7974 26.2473 13.6211 27.9168C11.4629 29.057 9.22323 29.4643 6.98356 29.1792C5.1511 28.9349 3.72585 28.1205 2.82998 26.7766C1.5269 24.7813 1.40473 22.6231 2.50421 20.4648C3.27792 18.9174 4.49956 17.7772 5.27326 17.2071C5.11038 16.6778 4.86605 15.7819 4.74388 15.1303C-1.16071 19.4061 -0.549891 25.1885 1.24185 27.9168C2.58565 29.9529 5.31398 31.2153 8.32736 31.2153C9.14179 31.2153 9.95622 31.1338 10.7706 30.9302C15.983 29.9122 19.9329 26.8174 22.1726 22.2159Z" fill="#764ABC"/>
<path d="M29.3397 17.1664C26.2448 13.5422 21.6841 11.5469 16.4717 11.5469H15.8202C15.4537 10.8139 14.68 10.3252 13.8248 10.3252H13.7434C12.481 10.3659 11.5037 11.4247 11.5444 12.6871C11.5852 13.9087 12.6032 14.886 13.8248 14.886H13.9063C14.8021 14.8453 15.5759 14.2752 15.9016 13.5015H16.6346C19.7294 13.5015 22.6614 14.3974 25.3083 16.1484C27.3443 17.4922 28.8103 19.2432 29.6247 21.3607C30.317 23.071 30.2763 24.7406 29.5433 26.1658C28.4031 28.3241 26.4892 29.505 23.9644 29.505C22.3356 29.505 20.7882 29.0163 19.9738 28.6498C19.5258 29.057 18.7114 29.7086 18.1413 30.1158C19.8923 30.9302 21.6841 31.3782 23.3944 31.3782C27.3036 31.3782 30.1948 29.2199 31.2943 27.0617C32.4752 24.6999 32.3938 20.6277 29.3397 17.1664Z" fill="#764ABC"/>
<path d="M8.65316 22.9081C8.69389 24.1297 9.71192 25.107 10.9336 25.107H11.015C12.2774 25.0663 13.2547 24.0076 13.214 22.7452C13.1732 21.5236 12.1552 20.5462 10.9336 20.5462H10.8521C10.7707 20.5462 10.6485 20.5462 10.5671 20.587C8.89749 17.8179 8.20523 14.8045 8.44956 11.5468C8.61244 9.10355 9.42687 6.98604 10.8521 5.23502C12.033 3.72833 14.3134 2.99535 15.8608 2.95462C20.1773 2.87318 22.0098 8.2484 22.1319 10.4066C22.6613 10.5288 23.5572 10.8138 24.168 11.0175C23.6793 4.42059 19.6072 1 15.698 1C12.033 1 8.65316 3.64689 7.30936 7.55614C5.43618 12.7685 6.65782 17.7772 8.93821 21.7272C8.73461 22.0122 8.61244 22.4601 8.65316 22.9081Z" fill="#764ABC"/>
</g>
<defs>
<clipPath id="clip0_176_350">
<rect width="32" height="32" fill="white"/>
</clipPath>
</defs>
</svg>
