<svg xmlns="http://www.w3.org/2000/svg" width="64" height="64" fill="none"><path fill="url(#a)" d="M62.383 9.76 33.66 61.12a1.561 1.561 0 0 1-2.718.01L1.652 9.766c-.656-1.15.327-2.543 1.63-2.31l28.753 5.14c.183.032.371.032.554-.002l28.151-5.13c1.3-.237 2.287 1.145 1.643 2.297Z"/><path fill="url(#b)" d="M45.731.714 24.476 4.879a.78.78 0 0 0-.629.72L22.54 27.68a.78.78 0 0 0 .954.806l5.918-1.365a.78.78 0 0 1 .94.916l-1.758 8.61a.78.78 0 0 0 .991.903l3.655-1.11a.78.78 0 0 1 .992.904l-2.794 13.523c-.175.846.95 1.307 1.42.582l.313-.484L50.49 16.4a.78.78 0 0 0-.846-1.115l-6.092 1.175a.78.78 0 0 1-.897-.983L46.63 1.696a.78.78 0 0 0-.9-.982Z"/><defs><linearGradient id="a" x1=".937" x2="36.683" y1="5.619" y2="54.166" gradientUnits="userSpaceOnUse"><stop stop-color="#41D1FF"/><stop offset="1" stop-color="#BD34FE"/></linearGradient><linearGradient id="b" x1="30.385" x2="36.851" y1="1.845" y2="46.203" gradientUnits="userSpaceOnUse"><stop stop-color="#FFEA83"/><stop offset=".083" stop-color="#FFDD35"/><stop offset="1" stop-color="#FFA800"/></linearGradient></defs></svg>