<svg xmlns="http://www.w3.org/2000/svg" width="64" height="64" fill="none"><g fill="#fff" clip-path="url(#a)"><path d="M4.549 32c0 10.865 6.314 20.255 15.471 24.705L6.925 20.827A27.348 27.348 0 0 0 4.55 32ZM50.532 30.614c0-3.393-1.218-5.742-2.264-7.571-1.391-2.261-2.696-4.176-2.696-6.438 0-2.523 1.914-4.872 4.61-4.872.122 0 .237.015.356.022A27.35 27.35 0 0 0 32 4.549c-9.59 0-18.028 4.92-22.936 12.373.644.02 1.25.033 1.766.033 2.872 0 7.316-.348 7.316-.348 1.48-.088 1.655 2.086.177 2.26 0 0-1.488.176-3.142.262l9.996 29.735 6.008-18.017-4.277-11.719c-1.478-.086-2.879-.261-2.879-.261-1.48-.087-1.306-2.349.174-2.262 0 0 4.533.349 7.23.349 2.871 0 7.317-.349 7.317-.349 1.48-.087 1.654 2.087.176 2.262 0 0-1.49.175-3.142.261l9.92 29.51 2.738-9.15c1.187-3.797 2.09-6.524 2.09-8.874Z"/><path d="m32.482 34.4-8.236 23.934a27.448 27.448 0 0 0 16.87-.438 2.41 2.41 0 0 1-.195-.378l-8.44-23.117ZM56.088 18.829c.118.874.185 1.813.185 2.822 0 2.786-.52 5.918-2.087 9.833L45.8 55.728c8.162-4.76 13.65-13.6 13.65-23.728.001-4.773-1.218-9.261-3.362-13.171Z"/><path d="M32 0C14.356 0 0 14.355 0 32c0 17.646 14.356 32 32 32s32.002-14.354 32.002-32C64.002 14.354 49.644 0 32 0Zm0 62.533C15.165 62.533 1.467 48.836 1.467 32 1.467 15.164 15.164 1.467 32 1.467c16.835 0 30.532 13.697 30.532 30.532 0 16.837-13.697 30.534-30.532 30.534Z"/></g><defs><clipPath id="a"><path fill="#fff" d="M0 0h63.998v64H0z"/></clipPath></defs></svg>