<svg width="32" height="32" viewBox="0 0 32 32" fill="none" xmlns="http://www.w3.org/2000/svg">
<g clip-path="url(#clip0_176_344)">
<path d="M2.27429 15.9996C2.27429 21.4326 5.43164 26.1277 10.01 28.3527L3.46264 10.4136C2.70105 12.1206 2.27429 14.0097 2.27429 15.9996Z" fill="#464342"/>
<path d="M25.2667 15.307C25.2667 13.6106 24.6574 12.4359 24.1347 11.5215C23.4389 10.3909 22.7868 9.4334 22.7868 8.30277C22.7868 7.04104 23.7437 5.86653 25.0917 5.86653C25.1526 5.86653 25.2103 5.8741 25.2696 5.8775C22.8275 3.64027 19.574 2.27432 16.0005 2.27432C11.2052 2.27432 6.98631 4.7346 4.53198 8.46105C4.85402 8.47071 5.15751 8.4775 5.4153 8.4775C6.85102 8.4775 9.07341 8.3033 9.07341 8.3033C9.81334 8.25968 9.90058 9.34643 9.16143 9.43392C9.16143 9.43392 8.41785 9.52142 7.59042 9.56477L12.5889 24.4322L15.5928 15.4235L13.4542 9.56425C12.7151 9.5209 12.0148 9.4334 12.0148 9.4334C11.2752 9.39005 11.3619 8.25916 12.1016 8.30277C12.1016 8.30277 14.3684 8.47698 15.7171 8.47698C17.1526 8.47698 19.3752 8.30277 19.3752 8.30277C20.1157 8.25916 20.2026 9.34591 19.4632 9.4334C19.4632 9.4334 18.7181 9.5209 17.8922 9.56425L22.8526 24.3191L24.2217 19.7441C24.8151 17.8456 25.2667 16.482 25.2667 15.307Z" fill="#464342"/>
<path d="M16.2413 17.2002L12.123 29.167C13.3527 29.5285 14.6531 29.7262 16.0005 29.7262C17.5989 29.7262 19.1317 29.4499 20.5585 28.9482C20.5217 28.8894 20.4882 28.827 20.4608 28.7591L16.2413 17.2002Z" fill="#464342"/>
<path d="M28.0445 9.41434C28.1035 9.85154 28.1369 10.3209 28.1369 10.8257C28.1369 12.2186 27.8768 13.7843 27.0933 15.7421L22.9006 27.864C26.9812 25.4845 29.7259 21.0635 29.7259 15.9999C29.7262 13.6135 29.1166 11.3695 28.0445 9.41434Z" fill="#464342"/>
<path d="M16.0005 0C7.17806 0 0 7.17736 0 15.9996C0 24.8229 7.17806 32 16.0005 32C24.8227 32 32.0018 24.8229 32.0018 15.9996C32.0016 7.17736 24.8227 0 16.0005 0ZM16.0005 31.2666C7.58263 31.2666 0.73366 24.4178 0.73366 15.9996C0.73366 7.58192 7.58237 0.733642 16.0005 0.733642C24.4182 0.733642 31.2666 7.58192 31.2666 15.9996C31.2666 24.4178 24.4182 31.2666 16.0005 31.2666Z" fill="#464342"/>
</g>
<defs>
<clipPath id="clip0_176_344">
<rect width="32" height="32" fill="white"/>
</clipPath>
</defs>
</svg>
