<svg xmlns="http://www.w3.org/2000/svg" width="64" height="64" fill="none"><path fill="#0277BD" d="M60 0H4l4.941 57.263L32 64l23.059-6.737L60 0Z"/><path fill="#039BE5" d="M32 5.333v53.334l19.075-5.35 4.258-47.984H32Z"/><path fill="#fff" d="M47.333 13.333H32v6.757h8.256l-.505 6.758H32v6.757h7.414l-.506 7.602L32 43.572v7.095l13.311-4.392 1.18-19.427.842-13.515Z"/><path fill="#EEE" d="M32 13.333v6.757H17.167l-.5-6.757H32Zm-7.667 13.515.334 6.757H32v-6.757h-7.667ZM25 36.983h-6.667l.5 9.292L32 50.667v-7.095l-6.833-2.365L25 36.983Z"/></svg>