<svg xmlns="http://www.w3.org/2000/svg" width="64" height="64" fill="none"><g clip-path="url(#a)"><path fill="#0ACF83" d="M21.991 64c5.889 0 10.667-4.779 10.667-10.667V42.667H21.991c-5.887 0-10.666 4.778-10.666 10.666C11.325 59.221 16.104 64 21.99 64Z"/><path fill="#A259FF" d="M11.325 32c0-5.888 4.779-10.667 10.666-10.667h10.667v21.334H21.991c-5.887 0-10.666-4.779-10.666-10.667Z"/><path fill="#F24E1E" d="M11.325 10.667C11.325 4.779 16.104 0 21.99 0h10.667v21.333H21.991c-5.887 0-10.666-4.778-10.666-10.666Z"/><path fill="#FF7262" d="M32.658 0h10.667C49.213 0 53.99 4.779 53.99 10.667s-4.778 10.666-10.666 10.666H32.658V0Z"/><path fill="#1ABCFE" d="M53.992 32c0 5.888-4.78 10.667-10.667 10.667-5.888 0-10.667-4.779-10.667-10.667s4.779-10.667 10.667-10.667S53.99 26.112 53.99 32Z"/></g><defs><clipPath id="a"><path fill="#fff" d="M0 0h64v64H0z"/></clipPath></defs></svg>