<svg xmlns="http://www.w3.org/2000/svg" width="64" height="64" fill="none"><g clip-path="url(#a)"><mask id="b" width="64" height="64" x="0" y="0" maskUnits="userSpaceOnUse" style="mask-type:luminance"><path fill="#fff" d="M0 0h64v64H0V0Z"/></mask><g mask="url(#b)"><path fill="#F34F29" d="M62.368 29.189 34.81 1.632a4.066 4.066 0 0 0-5.748 0L23.34 7.355l7.259 7.259a4.826 4.826 0 0 1 6.113 6.153l6.996 6.997a4.834 4.834 0 0 1 3.428 9.036 4.834 4.834 0 0 1-6.595-3.52 4.838 4.838 0 0 1 .27-2.79l-6.524-6.523-.001 17.17c.473.233.905.542 1.28.914a4.838 4.838 0 0 1-6.84 6.841 4.838 4.838 0 0 1 1.584-7.896v-17.33a4.836 4.836 0 0 1-2.625-6.343l-7.157-7.157L1.632 29.061a4.066 4.066 0 0 0 0 5.75L29.19 62.368a4.067 4.067 0 0 0 5.75 0L62.369 34.94a4.067 4.067 0 0 0 0-5.751Z"/></g></g><defs><clipPath id="a"><path fill="#fff" d="M0 0h64v64H0z"/></clipPath></defs></svg>