<svg width="32" height="32" viewBox="0 0 32 32" fill="none" xmlns="http://www.w3.org/2000/svg">
<path d="M30 0H2L4.47059 28.6316L16 32L27.5294 28.6316L30 0Z" fill="#E65100"/>
<path d="M16 2.66666V29.3333L25.5377 26.6583L27.6667 2.66666H16Z" fill="#FF6D00"/>
<path d="M16 16.8024V13.4238H23.1667L22.5833 23.1372L16 25.3333V21.7858L19.4167 20.6033L19.6667 16.8024H16ZM23.4167 10.0452L23.6667 6.66666H16V10.0452H23.4167Z" fill="white"/>
<path d="M16 21.7858V25.3333L9.34436 23.1372L9.00737 18.4917H12.3773L12.5458 20.6033L16 21.7858ZM11.8718 10.0452H16V6.66666H8.33337L8.92312 16.8024H16V13.4238H12.1246L11.8718 10.0452Z" fill="#EEEEEE"/>
</svg>
