<svg xmlns="http://www.w3.org/2000/svg" width="65" height="64" fill="none"><g clip-path="url(#a)"><path fill="#300" d="M12.332.8h41.333a11.324 11.324 0 0 1 11.333 11.333v39.734A11.324 11.324 0 0 1 53.665 63.2H12.332A11.324 11.324 0 0 1 .998 51.867V12.133A11.324 11.324 0 0 1 12.332.8Z"/><path fill="#FF9A00" d="M31.932 38.133h-9.92L19.985 44.4a.467.467 0 0 1-.506.373h-5.014c-.293 0-.373-.16-.293-.48l8.587-24.72c.08-.266.16-.56.266-.88.107-.56.16-1.146.16-1.733-.026-.133.08-.267.213-.293h6.907c.213 0 .32.08.347.213l9.733 27.467c.08.293 0 .426-.267.426h-5.573c-.187.027-.373-.106-.427-.293l-2.186-6.347Zm-8.373-5.413h6.773c-.16-.56-.373-1.227-.614-1.92-.24-.72-.48-1.493-.72-2.293-.266-.827-.506-1.627-.773-2.454-.267-.826-.507-1.6-.72-2.373-.213-.747-.4-1.44-.586-2.08h-.054a32.75 32.75 0 0 1-.906 3.44c-.4 1.28-.8 2.613-1.227 3.947a52.319 52.319 0 0 1-1.174 3.733Zm22.773-11.387a3.3 3.3 0 0 1-2.373-.933 3.464 3.464 0 0 1-.907-2.453c-.027-.907.32-1.76.96-2.374a3.415 3.415 0 0 1 2.373-.933c1.04 0 1.84.32 2.427.933.587.64.907 1.494.88 2.374a3.375 3.375 0 0 1-.934 2.453c-.613.64-1.52.987-2.426.933ZM43.345 44.48V23.947c0-.267.107-.374.347-.374h5.28c.24 0 .346.134.346.374V44.48c0 .293-.106.427-.346.427h-5.227c-.267 0-.4-.16-.4-.427Z"/></g><defs><clipPath id="a"><path fill="#fff" d="M.998 0h64v64h-64z"/></clipPath></defs></svg>