<svg width="32" height="32" viewBox="0 0 32 32" fill="none" xmlns="http://www.w3.org/2000/svg">
<g clip-path="url(#clip0_176_351)">
<mask id="mask0_176_351" style="mask-type:luminance" maskUnits="userSpaceOnUse" x="0" y="0" width="32" height="32">
<path d="M0 0H32V32H0V0Z" fill="white"/>
</mask>
<g mask="url(#mask0_176_351)">
<path d="M13.15 31.84C12.82 31.77 12.34 31.66 12.07 31.6C11.81 31.55 11.51 31.46 11.4 31.4C11.3 31.35 11.13 31.3 11.03 31.3C10.92 31.3 10.65 31.21 10.42 31.1C10.2 30.99 9.95005 30.9 9.87005 30.9C9.80005 30.9 9.65005 30.83 9.54005 30.75C9.44005 30.67 9.29005 30.6 9.22005 30.6C9.06005 30.6 7.46005 29.69 7.42005 29.58C7.40005 29.54 7.35005 29.5 7.30005 29.5C7.17005 29.5 6.00005 28.67 6.00005 28.58C6.00005 28.54 5.95005 28.5 5.88005 28.5C5.73005 28.5 3.51005 26.28 3.50005 26.13C3.50005 26.06 3.46005 26 3.42005 26C3.33005 26 2.50005 24.83 2.50005 24.7C2.50005 24.65 2.46005 24.6 2.42005 24.58C2.31005 24.54 1.40005 22.94 1.40005 22.78C1.40005 22.71 1.33005 22.56 1.25005 22.46C1.17005 22.35 1.10005 22.2 1.10005 22.13C1.10005 22.05 1.01005 21.8 0.900049 21.58C0.790049 21.35 0.700049 21.09 0.700049 21.01C0.700049 20.93 0.640049 20.68 0.560049 20.45C0.130049 19.24 0.0500488 18.51 0.0500488 16C0.0500488 13.49 0.130049 12.76 0.560049 11.55C0.640049 11.32 0.700049 11.07 0.700049 10.99C0.700049 10.91 0.790049 10.65 0.900049 10.42C1.01005 10.2 1.10005 9.94999 1.10005 9.86999C1.10005 9.79999 1.17005 9.64999 1.25005 9.53999C1.33005 9.43999 1.40005 9.28999 1.40005 9.21999C1.40005 9.05999 2.31005 7.45999 2.42005 7.41999C2.46005 7.39999 2.50005 7.34999 2.50005 7.29999C2.50005 7.16999 3.33005 5.99999 3.42005 5.99999C3.46005 5.99999 3.50005 5.94999 3.50005 5.87999C3.50005 5.72999 5.72005 3.50999 5.88005 3.49999C5.94005 3.49999 6.00005 3.45999 6.00005 3.41999C6.00005 3.32999 7.17005 2.49999 7.30005 2.49999C7.35005 2.49999 7.40005 2.45999 7.42005 2.41999C7.46005 2.30999 9.06005 1.39999 9.22005 1.39999C9.29005 1.39999 9.44005 1.32999 9.54005 1.24999C9.65005 1.16999 9.80005 1.09999 9.87005 1.09999C9.95005 1.09999 10.2 1.00999 10.42 0.899988C10.65 0.789988 10.91 0.699988 10.99 0.699988C11.07 0.699988 11.32 0.639988 11.55 0.559988C12.76 0.129988 13.49 0.0499878 16 0.0499878C18.51 0.0499878 19.24 0.129988 20.45 0.559988C20.68 0.639988 20.93 0.699988 21.01 0.699988C21.09 0.699988 21.35 0.789988 21.58 0.899988C21.8 1.00999 22.05 1.09999 22.13 1.09999C22.2001 1.09999 22.35 1.16999 22.4601 1.24999C22.56 1.32999 22.71 1.39999 22.7801 1.39999C22.9401 1.39999 24.54 2.30999 24.58 2.41999C24.6 2.45999 24.65 2.49999 24.7 2.49999C24.83 2.49999 26 3.32999 26 3.41999C26 3.45999 26.06 3.49999 26.13 3.49999C26.28 3.50999 28.5 5.72999 28.5 5.87999C28.5 5.94999 28.54 5.99999 28.58 5.99999C28.67 5.99999 29.5 7.16999 29.5 7.29999C29.5 7.34999 29.54 7.39999 29.58 7.41999C29.69 7.45999 30.6 9.05999 30.6 9.21999C30.6 9.28999 30.67 9.43999 30.75 9.53999C30.83 9.64999 30.9 9.79999 30.9 9.86999C30.9 9.94999 30.99 10.2 31.1 10.42C31.21 10.65 31.3 10.91 31.3 10.99C31.3 11.07 31.36 11.32 31.44 11.55C31.87 12.76 31.95 13.49 31.95 16C31.95 18.51 31.87 19.24 31.44 20.45C31.36 20.68 31.3 20.93 31.3 21.01C31.3 21.09 31.21 21.35 31.1 21.58C30.99 21.8 30.9 22.05 30.9 22.13C30.9 22.2 30.83 22.35 30.75 22.46C30.67 22.56 30.6 22.71 30.6 22.78C30.6 22.94 29.69 24.54 29.58 24.58C29.54 24.6 29.5 24.65 29.5 24.7C29.5 24.83 28.67 26 28.58 26C28.54 26 28.5 26.06 28.5 26.13C28.49 26.28 26.2701 28.5 26.1201 28.5C26.0501 28.5 26 28.54 26 28.58C26 28.67 24.83 29.5 24.7 29.5C24.65 29.5 24.6 29.54 24.58 29.58C24.54 29.69 22.9401 30.6 22.7801 30.6C22.71 30.6 22.56 30.67 22.4601 30.75C22.35 30.83 22.2001 30.9 22.13 30.9C22.05 30.9 21.8 30.99 21.58 31.1C21.35 31.21 21.1 31.3 21.02 31.3C20.94 31.3 20.67 31.37 20.41 31.45C19.0401 31.89 18.69 31.93 16.2 31.96C14.35 31.98 13.6 31.95 13.15 31.84Z" fill="#CD669A"/>
<path d="M8.31002 27.99C7.38002 27.81 6.85002 26.93 6.92002 25.68C7.01002 23.99 8.15002 22.71 11.1 21L12.11 20.42L11.43 19.93C11.06 19.65 10.47 19.24 10.12 19.01C9.00002 18.25 7.55002 17.03 7.01002 16.38C6.36002 15.59 5.90002 14.65 5.83002 13.97C5.68002 12.39 7.24002 9.94998 9.55002 8.14998C11.69 6.48998 14.98 4.87998 17.58 4.22998C18.53 3.98998 18.85 3.95998 20.35 3.94998C21.66 3.94998 22.2 3.98998 22.7 4.12998C23.62 4.37998 24.7 4.92998 25.2 5.40998C26.81 6.96998 26.39 9.83998 24.21 12.12C22.95 13.45 21.81 14.1 19.74 14.67C18.87 14.91 18.56 14.94 17.2 14.94C15.79 14.95 15.59 14.93 15 14.7C14.16 14.39 13.3 13.58 13.3 13.11C13.3 12.73 13.48 12.71 13.81 13.06C14.48 13.8 16.15 14.09 17.8 13.75C20.72 13.15 23.11 11.5 24.08 9.39998C24.28 8.96998 24.34 8.68998 24.34 8.08998C24.35 7.40998 24.32 7.29998 24.07 6.96998C23.51 6.23998 22.49 5.89998 20.79 5.89998C18.41 5.89998 16.08 6.62998 13.2 8.27998C9.89002 10.18 8.21002 12.19 8.32002 14.15C8.39002 15.49 8.90002 16.16 11.4 18.15C12.31 18.88 13.13 19.56 13.23 19.67C13.4 19.86 13.44 19.86 13.98 19.73C14.29 19.66 15.09 19.59 15.75 19.59C17.52 19.58 18.58 19.96 19.49 20.95C20.46 22 20.66 23.36 19.98 24.33C19.61 24.86 18.6 25.33 18.6 24.98C18.6 24.91 18.76 24.75 18.95 24.63C19.43 24.32 19.74 23.68 19.67 23.14C19.61 22.57 19.18 21.86 18.68 21.5C17.83 20.88 16.32 20.53 15.05 20.65C14.09 20.74 14.07 20.76 14.2 21.36C14.4 22.22 14.34 23.56 14.07 24.41C13.28 26.9 10.76 28.47 8.31002 27.99ZM10.68 26.13C11.73 25.64 12.64 24.43 12.9 23.17C13.02 22.58 12.95 21.54 12.78 21.44C12.66 21.36 11.46 22.09 10.63 22.74C9.83002 23.39 9.26002 24.1 8.99002 24.8C8.43002 26.28 9.14002 26.85 10.68 26.13Z" fill="#FEFDFE"/>
</g>
</g>
<defs>
<clipPath id="clip0_176_351">
<rect width="32" height="32" fill="white"/>
</clipPath>
</defs>
</svg>
