<svg xmlns="http://www.w3.org/2000/svg" width="64" height="64" fill="none"><g clip-path="url(#a)"><mask id="b" width="64" height="64" x="0" y="0" maskUnits="userSpaceOnUse" style="mask-type:luminance"><path fill="#fff" d="M0 0h64v64H0V0Z"/></mask><g mask="url(#b)"><path fill="#CD669A" d="M26.3 63.68c-.66-.14-1.62-.36-2.16-.48-.52-.1-1.12-.28-1.34-.4-.2-.1-.54-.2-.74-.2-.22 0-.76-.18-1.22-.4-.44-.22-.94-.4-1.1-.4-.14 0-.44-.14-.66-.3-.2-.16-.5-.3-.64-.3-.32 0-3.52-1.82-3.6-2.04-.04-.08-.14-.16-.24-.16-.26 0-2.6-1.66-2.6-1.84 0-.08-.1-.16-.24-.16-.3 0-4.74-4.44-4.76-4.74 0-.14-.08-.26-.16-.26C6.66 52 5 49.66 5 49.4c0-.1-.08-.2-.16-.24-.22-.08-2.04-3.28-2.04-3.6 0-.14-.14-.44-.3-.64-.16-.22-.3-.52-.3-.66 0-.16-.18-.66-.4-1.1-.22-.46-.4-.98-.4-1.14 0-.16-.12-.66-.28-1.12C.26 38.48.1 37.02.1 32c0-5.02.16-6.48 1.02-8.9.16-.46.28-.96.28-1.12 0-.16.18-.68.4-1.14.22-.44.4-.94.4-1.1 0-.14.14-.44.3-.66.16-.2.3-.5.3-.64 0-.32 1.82-3.52 2.04-3.6.08-.04.16-.14.16-.24 0-.26 1.66-2.6 1.84-2.6.08 0 .16-.1.16-.24 0-.3 4.44-4.74 4.76-4.76.12 0 .24-.08.24-.16C12 6.66 14.34 5 14.6 5c.1 0 .2-.08.24-.16.08-.22 3.28-2.04 3.6-2.04.14 0 .44-.14.64-.3.22-.16.52-.3.66-.3.16 0 .66-.18 1.1-.4.46-.22.98-.4 1.14-.4.16 0 .66-.12 1.12-.28C25.52.26 26.98.1 32 .1c5.02 0 6.48.16 8.9 1.02.46.16.96.28 1.12.28.16 0 .68.18 1.14.4.44.22.94.4 1.1.4.14 0 .44.14.66.3.2.16.5.3.64.3.32 0 3.52 1.82 3.6 2.04.04.08.14.16.24.16.26 0 2.6 1.66 2.6 1.84 0 .08.12.16.26.16.3.02 4.74 4.46 4.74 4.76 0 .14.08.24.16.24.18 0 1.84 2.34 1.84 2.6 0 .1.08.2.16.24.22.08 2.04 3.28 2.04 3.6 0 .14.14.44.3.64.16.22.3.52.3.66 0 .16.18.66.4 1.1.22.46.4.98.4 1.14 0 .16.12.66.28 1.12.86 2.42 1.02 3.88 1.02 8.9 0 5.02-.16 6.48-1.02 8.9-.16.46-.28.96-.28 1.12 0 .16-.18.68-.4 1.14-.22.44-.4.94-.4 1.1 0 .14-.14.44-.3.66-.16.2-.3.5-.3.64 0 .32-1.82 3.52-2.04 3.6-.08.04-.16.14-.16.24 0 .26-1.66 2.6-1.84 2.6-.08 0-.16.12-.16.26-.02.3-4.46 4.74-4.76 4.74-.14 0-.24.08-.24.16 0 .18-2.34 1.84-2.6 1.84-.1 0-.2.08-.24.16-.08.22-3.28 2.04-3.6 2.04-.14 0-.44.14-.64.3-.22.16-.52.3-.66.3-.16 0-.66.18-1.1.4-.46.22-.96.4-1.12.4-.16 0-.7.14-1.22.3-2.74.88-3.44.96-8.42 1.02-3.7.04-5.2-.02-6.1-.24Z"/><path fill="#FEFDFE" d="M16.62 55.98c-1.86-.36-2.92-2.12-2.78-4.62.18-3.38 2.46-5.94 8.36-9.36l2.02-1.16-1.36-.98c-.74-.56-1.92-1.38-2.62-1.84-2.24-1.52-5.14-3.96-6.22-5.26-1.3-1.58-2.22-3.46-2.36-4.82-.3-3.16 2.82-8.04 7.44-11.64 4.28-3.32 10.86-6.54 16.06-7.84 1.9-.48 2.54-.54 5.54-.56 2.62 0 3.7.08 4.7.36 1.84.5 4 1.6 5 2.56 3.22 3.12 2.38 8.86-1.98 13.42-2.52 2.66-4.8 3.96-8.94 5.1-1.74.48-2.36.54-5.08.54-2.82.02-3.22-.02-4.4-.48-1.68-.62-3.4-2.24-3.4-3.18 0-.76.36-.8 1.02-.1 1.34 1.48 4.68 2.06 7.98 1.38 5.84-1.2 10.62-4.5 12.56-8.7.4-.86.52-1.42.52-2.62.02-1.36-.04-1.58-.54-2.24-1.12-1.46-3.16-2.14-6.56-2.14-4.76 0-9.42 1.46-15.18 4.76-6.62 3.8-9.98 7.82-9.76 11.74.14 2.68 1.16 4.02 6.16 8 1.82 1.46 3.46 2.82 3.66 3.04.34.38.42.38 1.5.12.62-.14 2.22-.28 3.54-.28 3.54-.02 5.66.74 7.48 2.72 1.94 2.1 2.34 4.82.98 6.76-.74 1.06-2.76 2-2.76 1.3 0-.14.32-.46.7-.7.96-.62 1.58-1.9 1.44-2.98-.12-1.14-.98-2.56-1.98-3.28-1.7-1.24-4.72-1.94-7.26-1.7-1.92.18-1.96.22-1.7 1.42.4 1.72.28 4.4-.26 6.1-1.58 4.98-6.62 8.12-11.52 7.16Zm4.74-3.72c2.1-.98 3.92-3.4 4.44-5.92.24-1.18.1-3.26-.24-3.46-.24-.16-2.64 1.3-4.3 2.6-1.6 1.3-2.74 2.72-3.28 4.12-1.12 2.96.3 4.1 3.38 2.66Z"/></g></g><defs><clipPath id="a"><path fill="#fff" d="M0 0h64v64H0z"/></clipPath></defs></svg>