<svg xmlns="http://www.w3.org/2000/svg" width="64" height="64" fill="none"><path fill="#8ED6FB" d="M58.645 49.05 33.12 63.5V52.245L49 43.5l9.645 5.55Zm1.75-1.58V17.275l-9.34 5.4V42.08l9.335 5.385.005.005Zm-55.04 1.58 25.5 14.44V52.245L14.97 43.5l-9.615 5.55Zm-1.75-1.58V17.275l9.34 5.4V42.08l-9.34 5.39ZM4.7 15.32 30.88.5v10.88l-16.775 9.225-.135.075-9.27-5.36Zm54.59 0L33.12.5v10.88l16.775 9.22.135.075 9.27-5.355h-.01Z"/><path fill="#1C78C0" d="M30.88 49.685 15.185 41.05V23.96L30.88 33v16.685Zm2.24 0 15.695-8.625v-17.1L33.12 33v16.685ZM16.25 22 32 13.33 47.75 22 32 31.08 16.25 22Z"/></svg>