<svg width="64" height="64" viewBox="0 0 64 64" fill="none" xmlns="http://www.w3.org/2000/svg">
<path d="M58.645 49.05L33.12 63.5V52.245L49 43.5L58.645 49.05ZM60.395 47.47V17.275L51.055 22.675V42.08L60.39 47.465L60.395 47.47ZM5.35498 49.05L30.855 63.49V52.245L14.97 43.5L5.35498 49.05ZM3.60498 47.47V17.275L12.945 22.675V42.08L3.60498 47.47ZM4.69998 15.32L30.88 0.5V11.38L14.105 20.605L13.97 20.68L4.69998 15.32ZM59.29 15.32L33.12 0.5V11.38L49.895 20.6L50.03 20.675L59.3 15.32H59.29Z" fill="#8ED6FB"/>
<path d="M30.8801 49.685L15.1851 41.05V23.96L30.8801 33V49.685ZM33.1201 49.685L48.8151 41.06V23.96L33.1201 33V49.685ZM16.2501 22L32.0001 13.33L47.7501 22L32.0001 31.08L16.2501 22Z" fill="#1C78C0"/>
</svg>
