<svg width="64" height="64" viewBox="0 0 64 64" fill="none" xmlns="http://www.w3.org/2000/svg">
<g clip-path="url(#clip0_114_153)">
<path d="M44.3452 44.4317C46.7071 44.1874 48.4988 42.1513 48.4174 39.708C48.3359 37.2648 46.2999 35.3101 43.8566 35.3101H43.6937C41.169 35.3916 39.2144 37.5091 39.2958 40.0338C39.3772 41.2554 39.8659 42.3142 40.5989 43.0472C37.8298 48.5038 33.5948 52.4945 27.2423 55.8337C22.9258 58.1141 18.4465 58.9285 13.9671 58.3584C10.3022 57.8698 7.4517 56.2409 5.65996 53.5533C3.0538 49.5626 2.80947 45.2461 5.00842 40.9297C6.55583 37.8349 8.99911 35.5545 10.5465 34.4143C10.2208 33.3555 9.7321 31.5638 9.48777 30.2607C-2.32142 38.8122 -1.09978 50.377 2.4837 55.8337C5.1713 59.9058 10.628 62.4305 16.6547 62.4305C18.2836 62.4305 19.9124 62.2677 21.5413 61.8604C31.966 59.8244 39.8659 53.6347 44.3452 44.4317Z" fill="#764ABC"/>
<path d="M58.6792 34.3328C52.4896 27.0844 43.368 23.0937 32.9433 23.0937H31.6402C30.9073 21.6278 29.3598 20.6505 27.6495 20.6505H27.4867C24.9619 20.7319 23.0073 22.8494 23.0888 25.3741C23.1702 27.8174 25.2063 29.772 27.6495 29.772H27.8124C29.6042 29.6906 31.1516 28.5504 31.8031 27.003H33.2691C39.4587 27.003 45.3226 28.7947 50.6164 32.2968C54.6885 34.9844 57.6205 38.4864 59.2493 42.7214C60.6338 46.142 60.5524 49.4812 59.0864 52.3317C56.806 56.6481 52.9782 59.01 47.9288 59.01C44.6711 59.01 41.5762 58.0326 39.9474 57.2997C39.0515 58.1141 37.4227 59.4172 36.2825 60.2316C39.7845 61.8605 43.368 62.7563 46.7886 62.7563C54.6071 62.7563 60.3895 58.4399 62.5885 54.1234C64.9503 49.3997 64.7874 41.2555 58.6792 34.3328Z" fill="#764ABC"/>
<path d="M17.3063 45.8162C17.3878 48.2595 19.4238 50.2141 21.8671 50.2141H22.03C24.5547 50.1326 26.5094 48.0151 26.4279 45.4904C26.3465 43.0471 24.3104 41.0925 21.8671 41.0925H21.7042C21.5413 41.0925 21.297 41.0925 21.1341 41.1739C17.795 35.6358 16.4105 29.6091 16.8991 23.0937C17.2249 18.2071 18.8537 13.9721 21.7042 10.47C24.0661 7.45666 28.6269 5.99069 31.7217 5.90925C40.3546 5.74636 44.0195 16.4968 44.2639 20.8133C45.3226 21.0576 47.1144 21.6277 48.336 22.0349C47.3587 8.84119 39.2144 2 31.3959 2C24.0661 2 17.3063 7.29377 14.6187 15.1123C10.8724 25.5369 13.3156 35.5544 17.8764 43.4543C17.4692 44.0244 17.2249 44.9203 17.3063 45.8162Z" fill="#764ABC"/>
</g>
<defs>
<clipPath id="clip0_114_153">
<rect width="64" height="64" fill="white"/>
</clipPath>
</defs>
</svg>
