<svg width="64" height="64" viewBox="0 0 64 64" fill="none" xmlns="http://www.w3.org/2000/svg">
<path d="M60 0H4L8.94118 57.2632L32 64L55.0588 57.2632L60 0Z" fill="#0277BD"/>
<path d="M32 5.33331V58.6666L51.0754 53.3166L55.3333 5.33331H32Z" fill="#039BE5"/>
<path d="M47.3333 13.3333H32V20.0905H40.2564L39.7509 26.8476H32V33.6048H39.4139L38.9084 41.2066L32 43.5716V50.6666L45.3114 46.2745L46.4908 26.8476L47.3333 13.3333Z" fill="white"/>
<path d="M32 13.3333V20.0905H17.1666L16.6666 13.3333H32ZM24.3333 26.8476L24.6666 33.6048H32V26.8476H24.3333ZM25 36.9834H18.3333L18.8333 46.2745L32 50.6666V43.5716L25.1666 41.2066L25 36.9834Z" fill="#EEEEEE"/>
</svg>
