<svg width="64" height="64" viewBox="0 0 64 64" fill="none" xmlns="http://www.w3.org/2000/svg">
<path d="M60 0H4L8.94118 57.2632L32 64L55.0588 57.2632L60 0Z" fill="#E65100"/>
<path d="M32 5.33331V58.6666L51.0754 53.3166L55.3333 5.33331H32Z" fill="#FF6D00"/>
<path d="M32 33.6048V26.8476H46.3333L45.1667 46.2745L32 50.6666V43.5716L38.8333 41.2066L39.3333 33.6048H32ZM46.8333 20.0905L47.3333 13.3333H32V20.0905H46.8333Z" fill="white"/>
<path d="M32 43.5716V50.6666L18.6886 46.2745L18.0146 36.9834H24.7545L25.0915 41.2066L32 43.5716ZM23.7435 20.0905H32V13.3333H16.6666L17.8461 33.6048H32V26.8476H24.249L23.7435 20.0905Z" fill="#EEEEEE"/>
</svg>
