<svg width="64" height="64" viewBox="0 0 64 64" fill="none" xmlns="http://www.w3.org/2000/svg">
<g clip-path="url(#clip0_116_181)">
<path d="M4.54858 31.9992C4.54858 42.8651 10.8633 52.2554 20.0201 56.7053L6.92528 20.8271C5.40211 24.2412 4.54858 28.0194 4.54858 31.9992Z" fill="#fff"/>
<path d="M50.5322 30.614C50.5322 27.2213 49.3136 24.8718 48.2684 23.043C46.8768 20.7817 45.5725 18.8668 45.5725 16.6055C45.5725 14.0821 47.4864 11.7331 50.1823 11.7331C50.304 11.7331 50.4194 11.7482 50.538 11.755C45.654 7.28054 39.1471 4.54865 32.0003 4.54865C22.4099 4.54865 13.9724 9.46919 9.06384 16.9221C9.7079 16.9414 10.3149 16.955 10.8304 16.955C13.7018 16.955 18.1465 16.6066 18.1465 16.6066C19.6263 16.5194 19.8008 18.6929 18.3225 18.8678C18.3225 18.8678 16.8354 19.0428 15.1806 19.1295L25.1773 48.8644L31.1849 30.8469L26.9079 19.1285C25.4296 19.0418 24.0292 18.8668 24.0292 18.8668C22.5499 18.7801 22.7233 16.5183 24.2026 16.6055C24.2026 16.6055 28.7361 16.954 31.4335 16.954C34.3044 16.954 38.7496 16.6055 38.7496 16.6055C40.2304 16.5183 40.4044 18.6918 38.9256 18.8668C38.9256 18.8668 37.4353 19.0418 35.7837 19.1285L45.7041 48.6382L48.4423 39.4882C49.6291 35.6912 50.5322 32.964 50.5322 30.614Z" fill="#fff"/>
<path d="M32.4819 34.4005L24.2455 58.334C26.7047 59.057 29.3055 59.4524 32.0003 59.4524C35.1971 59.4524 38.2628 58.8998 41.1164 57.8963C41.0427 57.7788 40.9759 57.6539 40.921 57.5181L32.4819 34.4005Z" fill="#fff"/>
<path d="M56.088 18.8287C56.206 19.7031 56.2729 20.6418 56.2729 21.6515C56.2729 24.4372 55.7526 27.5686 54.1856 31.4842L45.8003 55.7281C53.9615 50.9689 59.4509 42.1271 59.4509 31.9998C59.4514 27.227 58.2322 22.739 56.088 18.8287Z" fill="#fff"/>
<path d="M32.0003 0C14.3558 0 0 14.3547 0 31.9992C0 49.6458 14.3558 64 32.0003 64C49.6442 64 64.0021 49.6458 64.0021 31.9992C64.0016 14.3547 49.6442 0 32.0003 0ZM32.0003 62.5332C15.1649 62.5332 1.46728 48.8356 1.46728 31.9992C1.46728 15.1638 15.1644 1.46728 32.0003 1.46728C48.8351 1.46728 62.5317 15.1638 62.5317 31.9992C62.5317 48.8356 48.8351 62.5332 32.0003 62.5332Z" fill="#fff"/>
</g>
<defs>
<clipPath id="clip0_116_181">
<rect width="63.9984" height="64" fill="white"/>
</clipPath>
</defs>
</svg>
