<svg width="64" height="64" viewBox="0 0 64 64" fill="none" xmlns="http://www.w3.org/2000/svg">
<path d="M52.275 22.147C51.6 21.922 50.925 21.7095 50.25 21.5095C50.3625 21.047 50.4625 20.5845 50.5625 20.122C52.1 12.672 51.0875 6.68447 47.675 4.70947C44.3875 2.82197 39.025 4.78447 33.6 9.50947C33.0625 9.97197 32.5375 10.4595 32.0375 10.947C31.7 10.622 31.35 10.297 31 9.98447C25.3125 4.93447 19.6125 2.80947 16.2 4.79697C12.925 6.69697 11.95 12.3345 13.325 19.3845C13.4625 20.0845 13.6125 20.772 13.7875 21.472C12.9875 21.697 12.2 21.947 11.4625 22.2095C4.7875 24.522 0 28.172 0 31.947C0 35.847 5.1 39.7595 12.0375 42.1345C12.6 42.322 13.1625 42.5095 13.7375 42.672C13.55 43.422 13.3875 44.1595 13.2375 44.922C11.925 51.8595 12.95 57.3595 16.225 59.247C19.6 61.197 25.275 59.197 30.8 54.3595C31.2375 53.972 31.675 53.572 32.1125 53.147C32.6625 53.6845 33.2375 54.197 33.8125 54.697C39.1625 59.297 44.45 61.1595 47.7125 59.272C51.0875 57.322 52.1875 51.4095 50.7625 44.2095C50.65 43.6595 50.525 43.097 50.3875 42.522C50.7875 42.4095 51.175 42.2845 51.5625 42.1595C58.775 39.772 64 35.9095 64 31.947C64 28.1595 59.075 24.4845 52.275 22.147ZM35.3625 11.5345C40.0125 7.48447 44.35 5.89697 46.325 7.03447C48.4375 8.24697 49.25 13.147 47.925 19.5845C47.8375 20.0095 47.75 20.422 47.6375 20.8345C44.8625 20.2095 42.05 19.7595 39.225 19.5095C37.6 17.1845 35.825 14.9595 33.9 12.872C34.3875 12.4095 34.8625 11.972 35.3625 11.5345ZM20.9 38.4345C21.5375 39.522 22.1875 40.6095 22.875 41.672C20.925 41.4595 18.9875 41.147 17.075 40.7345C17.625 38.9345 18.3125 37.072 19.1125 35.172C19.6875 36.272 20.275 37.3595 20.9 38.4345ZM17.1125 23.397C18.9125 22.997 20.825 22.672 22.8125 22.422C22.15 23.4595 21.5 24.522 20.8875 25.597C20.275 26.6595 19.675 27.747 19.1125 28.847C18.325 26.9845 17.6625 25.1595 17.1125 23.397ZM20.5375 32.0095C21.3625 30.2845 22.2625 28.597 23.2125 26.9345C24.1625 25.272 25.1875 23.6595 26.2625 22.072C28.1375 21.9345 30.05 21.8595 32 21.8595C33.95 21.8595 35.875 21.9345 37.7375 22.072C38.8 23.647 39.8125 25.2595 40.775 26.9095C41.7375 28.5595 42.6375 30.247 43.4875 31.9595C42.65 33.6845 41.75 35.3845 40.7875 37.0595C39.8375 38.722 38.825 40.3345 37.7625 41.9345C35.9 42.072 33.9625 42.1345 32 42.1345C30.0375 42.1345 28.1375 42.072 26.3 41.9595C25.2125 40.372 24.1875 38.747 23.225 37.0845C22.2625 35.422 21.375 33.7345 20.5375 32.0095ZM43.1125 38.4095C43.75 37.3095 44.35 36.197 44.9375 35.072C45.7375 36.8845 46.4375 38.722 47.05 40.6095C45.1125 41.047 43.15 41.3845 41.175 41.6095C41.85 40.5595 42.4875 39.4845 43.1125 38.4095ZM44.9125 28.847C44.325 27.747 43.725 26.647 43.1 25.572C42.4875 24.5095 41.85 23.4595 41.1875 22.422C43.2 22.672 45.125 23.0095 46.925 23.422C46.35 25.272 45.675 27.072 44.9125 28.847ZM32.025 14.7845C33.3375 16.2095 34.575 17.7095 35.725 19.2595C33.25 19.147 30.7625 19.147 28.2875 19.2595C29.5125 17.647 30.775 16.147 32.025 14.7845ZM17.525 7.12197C19.625 5.89697 24.2875 7.64697 29.2 11.997C29.5125 12.272 29.825 12.572 30.15 12.872C28.2125 14.9595 26.425 17.1845 24.7875 19.5095C21.9625 19.7595 19.1625 20.197 16.3875 20.8095C16.225 20.172 16.0875 19.522 15.95 18.872C14.775 12.822 15.55 8.25947 17.525 7.12197ZM14.4625 40.072C13.9375 39.922 13.425 39.7595 12.9125 39.5845C10.25 38.747 7.225 37.422 5.0375 35.6845C3.775 34.8095 2.925 33.4595 2.6875 31.947C2.6875 29.6595 6.6375 26.7345 12.3375 24.747C13.05 24.497 13.775 24.272 14.5 24.0595C15.35 26.772 16.375 29.4345 17.5625 32.0095C16.3625 34.622 15.325 37.322 14.4625 40.072ZM29.0375 52.322C26.975 54.2095 24.5875 55.7095 21.9875 56.7345C20.6 57.397 19 57.4595 17.575 56.897C15.5875 55.747 14.7625 51.3345 15.8875 45.397C16.025 44.697 16.175 43.997 16.35 43.3095C19.15 43.9095 21.975 44.322 24.8375 44.5345C26.4875 46.872 28.3 49.1095 30.2375 51.2095C29.8375 51.597 29.4375 51.972 29.0375 52.322ZM32.1 49.2845C30.825 47.9095 29.55 46.3845 28.3125 44.747C29.5125 44.797 30.75 44.822 32 44.822C33.2875 44.822 34.55 44.797 35.8 44.7345C34.65 46.322 33.4125 47.8345 32.1 49.2845ZM48.4375 53.0345C48.325 54.5595 47.575 55.9845 46.375 56.947C44.3875 58.097 40.15 56.597 35.575 52.672C35.05 52.222 34.525 51.7345 33.9875 51.2345C35.9 49.122 37.6625 46.8845 39.2625 44.5345C42.125 44.297 44.975 43.8595 47.7875 43.222C47.9125 43.7345 48.025 44.247 48.125 44.747C48.7375 47.447 48.8375 50.2595 48.4375 53.0345ZM50.7125 39.597C50.3625 39.7095 50.0125 39.822 49.65 39.922C48.775 37.197 47.7 34.5345 46.4625 31.947C47.6625 29.397 48.675 26.772 49.525 24.0845C50.175 24.272 50.8 24.472 51.4 24.672C57.225 26.672 61.3125 29.647 61.3125 31.922C61.3125 34.372 56.95 37.5345 50.7125 39.597ZM32 37.722C35.1625 37.722 37.725 35.1595 37.725 31.997C37.725 28.8345 35.1625 26.272 32 26.272C28.8375 26.272 26.275 28.8345 26.275 31.997C26.275 35.1595 28.8375 37.722 32 37.722Z" fill="#61DAFB"/>
</svg>
