<svg width="64" height="64" viewBox="0 0 64 64" fill="none" xmlns="http://www.w3.org/2000/svg">
<g clip-path="url(#clip0_114_120)">
<mask id="mask0_114_120" style="mask-type:luminance" maskUnits="userSpaceOnUse" x="0" y="0" width="64" height="64">
<path d="M0 0H64V64H0V0Z" fill="white"/>
</mask>
<g mask="url(#mask0_114_120)">
<path d="M26.3 63.68C25.64 63.54 24.68 63.32 24.14 63.2C23.62 63.1 23.02 62.92 22.8 62.8C22.6 62.7 22.26 62.6 22.06 62.6C21.84 62.6 21.3 62.42 20.84 62.2C20.4 61.98 19.9 61.8 19.74 61.8C19.6 61.8 19.3 61.66 19.08 61.5C18.88 61.34 18.58 61.2 18.44 61.2C18.12 61.2 14.92 59.38 14.84 59.16C14.8 59.08 14.7 59 14.6 59C14.34 59 12 57.34 12 57.16C12 57.08 11.9 57 11.76 57C11.46 57 7.01998 52.56 6.99998 52.26C6.99998 52.12 6.91998 52 6.83998 52C6.65998 52 4.99998 49.66 4.99998 49.4C4.99998 49.3 4.91998 49.2 4.83998 49.16C4.61998 49.08 2.79998 45.88 2.79998 45.56C2.79998 45.42 2.65998 45.12 2.49998 44.92C2.33998 44.7 2.19998 44.4 2.19998 44.26C2.19998 44.1 2.01998 43.6 1.79998 43.16C1.57998 42.7 1.39998 42.18 1.39998 42.02C1.39998 41.86 1.27998 41.36 1.11998 40.9C0.259976 38.48 0.0999756 37.02 0.0999756 32C0.0999756 26.98 0.259976 25.52 1.11998 23.1C1.27998 22.64 1.39998 22.14 1.39998 21.98C1.39998 21.82 1.57998 21.3 1.79998 20.84C2.01998 20.4 2.19998 19.9 2.19998 19.74C2.19998 19.6 2.33998 19.3 2.49998 19.08C2.65998 18.88 2.79998 18.58 2.79998 18.44C2.79998 18.12 4.61998 14.92 4.83998 14.84C4.91998 14.8 4.99998 14.7 4.99998 14.6C4.99998 14.34 6.65998 12 6.83998 12C6.91998 12 6.99998 11.9 6.99998 11.76C6.99998 11.46 11.44 7.01998 11.76 6.99998C11.88 6.99998 12 6.91998 12 6.83998C12 6.65998 14.34 4.99998 14.6 4.99998C14.7 4.99998 14.8 4.91998 14.84 4.83998C14.92 4.61998 18.12 2.79998 18.44 2.79998C18.58 2.79998 18.88 2.65998 19.08 2.49998C19.3 2.33998 19.6 2.19998 19.74 2.19998C19.9 2.19998 20.4 2.01998 20.84 1.79998C21.3 1.57998 21.82 1.39998 21.98 1.39998C22.14 1.39998 22.64 1.27998 23.1 1.11998C25.52 0.259976 26.98 0.0999756 32 0.0999756C37.02 0.0999756 38.48 0.259976 40.9 1.11998C41.36 1.27998 41.86 1.39998 42.02 1.39998C42.18 1.39998 42.7 1.57998 43.16 1.79998C43.6 2.01998 44.1 2.19998 44.26 2.19998C44.4 2.19998 44.7 2.33998 44.92 2.49998C45.12 2.65998 45.42 2.79998 45.56 2.79998C45.88 2.79998 49.08 4.61998 49.16 4.83998C49.2 4.91998 49.3 4.99998 49.4 4.99998C49.66 4.99998 52 6.65998 52 6.83998C52 6.91998 52.12 6.99998 52.26 6.99998C52.56 7.01998 57 11.46 57 11.76C57 11.9 57.08 12 57.16 12C57.34 12 59 14.34 59 14.6C59 14.7 59.08 14.8 59.16 14.84C59.38 14.92 61.2 18.12 61.2 18.44C61.2 18.58 61.34 18.88 61.5 19.08C61.66 19.3 61.8 19.6 61.8 19.74C61.8 19.9 61.98 20.4 62.2 20.84C62.42 21.3 62.6 21.82 62.6 21.98C62.6 22.14 62.72 22.64 62.88 23.1C63.74 25.52 63.9 26.98 63.9 32C63.9 37.02 63.74 38.48 62.88 40.9C62.72 41.36 62.6 41.86 62.6 42.02C62.6 42.18 62.42 42.7 62.2 43.16C61.98 43.6 61.8 44.1 61.8 44.26C61.8 44.4 61.66 44.7 61.5 44.92C61.34 45.12 61.2 45.42 61.2 45.56C61.2 45.88 59.38 49.08 59.16 49.16C59.08 49.2 59 49.3 59 49.4C59 49.66 57.34 52 57.16 52C57.08 52 57 52.12 57 52.26C56.98 52.56 52.54 57 52.24 57C52.1 57 52 57.08 52 57.16C52 57.34 49.66 59 49.4 59C49.3 59 49.2 59.08 49.16 59.16C49.08 59.38 45.88 61.2 45.56 61.2C45.42 61.2 45.12 61.34 44.92 61.5C44.7 61.66 44.4 61.8 44.26 61.8C44.1 61.8 43.6 61.98 43.16 62.2C42.7 62.42 42.2 62.6 42.04 62.6C41.88 62.6 41.34 62.74 40.82 62.9C38.08 63.78 37.38 63.86 32.4 63.92C28.7 63.96 27.2 63.9 26.3 63.68Z" fill="#CD669A"/>
<path d="M16.6199 55.98C14.7599 55.62 13.6999 53.86 13.8399 51.36C14.0199 47.98 16.2999 45.42 22.1999 42L24.2199 40.84L22.8599 39.86C22.1199 39.3 20.9399 38.48 20.2399 38.02C17.9999 36.5 15.0999 34.06 14.0199 32.76C12.7199 31.18 11.7999 29.3 11.6599 27.94C11.3599 24.78 14.4799 19.9 19.0999 16.3C23.3799 12.98 29.9599 9.75996 35.1599 8.45996C37.0599 7.97996 37.6999 7.91996 40.6999 7.89996C43.3199 7.89996 44.3999 7.97996 45.3999 8.25996C47.2399 8.75996 49.3999 9.85996 50.3999 10.82C53.6199 13.94 52.7799 19.68 48.4199 24.24C45.8999 26.9 43.6199 28.2 39.4799 29.34C37.7399 29.82 37.1199 29.88 34.3999 29.88C31.5799 29.9 31.1799 29.86 29.9999 29.4C28.3199 28.78 26.5999 27.16 26.5999 26.22C26.5999 25.46 26.9599 25.42 27.6199 26.12C28.9599 27.6 32.2999 28.18 35.5999 27.5C41.4399 26.3 46.2199 23 48.1599 18.8C48.5599 17.94 48.6799 17.38 48.6799 16.18C48.6999 14.82 48.6399 14.6 48.1399 13.94C47.0199 12.48 44.9799 11.8 41.5799 11.8C36.8199 11.8 32.1599 13.26 26.3999 16.56C19.7799 20.36 16.4199 24.38 16.6399 28.3C16.7799 30.98 17.7999 32.32 22.7999 36.3C24.6199 37.76 26.2599 39.12 26.4599 39.34C26.7999 39.72 26.8799 39.72 27.9599 39.46C28.5799 39.32 30.1799 39.18 31.4999 39.18C35.0399 39.16 37.1599 39.92 38.9799 41.9C40.9199 44 41.3199 46.72 39.9599 48.66C39.2199 49.72 37.1999 50.66 37.1999 49.96C37.1999 49.82 37.5199 49.5 37.8999 49.26C38.8599 48.64 39.4799 47.36 39.3399 46.28C39.2199 45.14 38.3599 43.72 37.3599 43C35.6599 41.76 32.6399 41.06 30.0999 41.3C28.1799 41.48 28.1399 41.52 28.3999 42.72C28.7999 44.44 28.6799 47.12 28.1399 48.82C26.5599 53.8 21.5199 56.94 16.6199 55.98ZM21.3599 52.26C23.4599 51.28 25.2799 48.86 25.7999 46.34C26.0399 45.16 25.8999 43.08 25.5599 42.88C25.3199 42.72 22.9199 44.18 21.2599 45.48C19.6599 46.78 18.5199 48.2 17.9799 49.6C16.8599 52.56 18.2799 53.7 21.3599 52.26Z" fill="#FEFDFE"/>
</g>
</g>
<defs>
<clipPath id="clip0_114_120">
<rect width="64" height="64" fill="white"/>
</clipPath>
</defs>
</svg>
