<svg width="65" height="64" viewBox="0 0 65 64" fill="none" xmlns="http://www.w3.org/2000/svg">
<g clip-path="url(#clip0_116_284)">
<path d="M12.3317 1H53.6651C59.9317 1 64.9984 6.06667 64.9984 12.3333V52.0667C64.9984 58.3333 59.9317 63.4 53.6651 63.4H12.3317C6.06508 63.4 0.998413 58.3333 0.998413 52.0667V12.3333C0.998413 6.06667 6.06508 1 12.3317 1Z" fill="#001E36"/>
<path d="M15.3984 44.76V17.32C15.3984 17.1333 15.4784 17.0266 15.6651 17.0266C16.1184 17.0266 16.5451 17.0266 17.1584 17C17.7984 16.9733 18.4651 16.9733 19.1851 16.9466C19.9051 16.92 20.6784 16.92 21.5051 16.8933C22.3318 16.8666 23.1318 16.8666 23.9318 16.8666C26.1184 16.8666 27.9318 17.1333 29.4251 17.6933C30.7584 18.1466 31.9851 18.8933 32.9984 19.88C33.8518 20.7333 34.5184 21.7733 34.9451 22.92C35.3451 24.04 35.5584 25.1866 35.5584 26.3866C35.5584 28.68 35.0251 30.5733 33.9584 32.0666C32.8918 33.56 31.3984 34.68 29.6651 35.32C27.8518 35.9866 25.8518 36.2266 23.6651 36.2266C23.0251 36.2266 22.5984 36.2266 22.3318 36.2C22.0651 36.1733 21.6918 36.1733 21.1851 36.1733V44.7333C21.2118 44.92 21.0784 45.08 20.8918 45.1066C20.8651 45.1066 20.8384 45.1066 20.7851 45.1066H15.7184C15.5051 45.1066 15.3984 45 15.3984 44.76ZM21.2118 22.1733V31.1333C21.5851 31.16 21.9318 31.1866 22.2518 31.1866H23.6651C24.7051 31.1866 25.7451 31.0266 26.7318 30.7066C27.5851 30.4666 28.3318 29.96 28.9184 29.2933C29.4784 28.6266 29.7451 27.72 29.7451 26.5466C29.7718 25.72 29.5584 24.8933 29.1318 24.1733C28.6784 23.48 28.0384 22.9466 27.2651 22.6533C26.2784 22.2533 25.2118 22.0933 24.1184 22.12C23.4251 22.12 22.8118 22.12 22.3051 22.1466C21.7718 22.12 21.3984 22.1466 21.2118 22.1733Z" fill="#31A8FF"/>
<path d="M52.1984 29.5066C51.3984 29.08 50.5451 28.7866 49.6384 28.6C48.6517 28.3866 47.6651 28.2533 46.6517 28.2533C46.1184 28.2266 45.5584 28.3066 45.0517 28.44C44.7051 28.52 44.4117 28.7066 44.2251 28.9733C44.0917 29.1866 44.0117 29.4533 44.0117 29.6933C44.0117 29.9333 44.1184 30.1733 44.2784 30.3866C44.5184 30.68 44.8384 30.92 45.1851 31.1066C45.7984 31.4266 46.4384 31.72 47.0784 31.9866C48.5184 32.4666 49.9051 33.1333 51.1851 33.9333C52.0651 34.4933 52.7851 35.24 53.2917 36.1466C53.7184 37 53.9317 37.9333 53.9051 38.8933C53.9317 40.1466 53.5584 41.4 52.8651 42.44C52.1184 43.5066 51.0784 44.3333 49.8784 44.8133C48.5717 45.3733 46.9717 45.6666 45.0517 45.6666C43.8251 45.6666 42.6251 45.56 41.4251 45.32C40.4917 45.16 39.5584 44.8666 38.7051 44.4666C38.5184 44.36 38.3851 44.1733 38.4117 43.96V39.32C38.4117 39.24 38.4384 39.1333 38.5184 39.08C38.5984 39.0266 38.6784 39.0533 38.7584 39.1066C39.7984 39.72 40.8917 40.1466 42.0651 40.4133C43.0784 40.68 44.1451 40.8133 45.2117 40.8133C46.2251 40.8133 46.9451 40.68 47.4251 40.44C47.8517 40.2533 48.1451 39.8 48.1451 39.32C48.1451 38.9466 47.9317 38.6 47.5051 38.2533C47.0784 37.9066 46.1984 37.5066 44.8917 37C43.5317 36.52 42.2784 35.88 41.1051 35.08C40.2784 34.4933 39.5851 33.72 39.0784 32.8133C38.6517 31.96 38.4384 31.0266 38.4651 30.0933C38.4651 28.9466 38.7851 27.8533 39.3717 26.8666C40.0384 25.8 41.0251 24.9466 42.1717 24.4133C43.4251 23.7733 44.9984 23.48 46.8917 23.48C47.9851 23.48 49.1051 23.56 50.1984 23.72C50.9984 23.8266 51.7717 24.04 52.4917 24.3333C52.5984 24.36 52.7051 24.4666 52.7584 24.5733C52.7851 24.68 52.8117 24.7866 52.8117 24.8933V29.24C52.8117 29.3466 52.7584 29.4533 52.6784 29.5066C52.4384 29.56 52.3051 29.56 52.1984 29.5066Z" fill="#31A8FF"/>
</g>
<defs>
<clipPath id="clip0_116_284">
<rect width="64" height="64" fill="white" transform="translate(0.998413)"/>
</clipPath>
</defs>
</svg>
